<svg xmlns="http://www.w3.org/2000/svg" xmlns:xlink="http://www.w3.org/1999/xlink" width="124.149" height="74.976" viewBox="0 0 124.149 74.976"><defs><style>.a,.f{fill:none;}.b{clip-path:url(#a);}.c{fill:#e9e9e9;}.d{fill:#fff;}.e{fill:#323232;}.f{stroke:#323232;stroke-width:0.5px;}.g{fill:#ffaf50;}.h{fill:#383838;}.i{fill:#64c8e6;}</style><clipPath id="a"><rect class="a" width="124.149" height="74.976"/></clipPath></defs><g transform="translate(-0.249 -0.202)"><g class="b" transform="translate(0.249 0.202)"><path class="c" d="M109.846,16.749c-.917-.016-1.835,0-2.752,0h-5.85a.526.526,0,0,1-.463-.239H99.037v5.75h1.715a.579.579,0,0,1,.493-.864h9.6V18.531c0-.809.095-1.764-1-1.782" transform="translate(7.268 1.039)"/><path class="d" d="M105.685,22.145a.524.524,0,0,1-.493-.293h-1.715v36.44a.579.579,0,0,1-.578.578c-.049,0-.1,0-.147,0-1.132.032-2.271,0-3.4,0H40.69v1.594a.524.524,0,0,1,.273.482v3.878c.187,0,.376.017.555.017h73.728c-.009-.442.041-.909.041-1.326V22.145h-9.6Z" transform="translate(2.828 1.445)"/><path class="e" d="M116.508,19.381v-.532c0-.394.016-.791,0-1.184a2.044,2.044,0,0,0-1.543-1.953,10.427,10.427,0,0,0-2.332-.054h-6.884a.584.584,0,0,0-.463.918h0a.527.527,0,0,0,.463.24h5.85c.917,0,1.835-.016,2.752,0,1.1.018,1,.972,1,1.781v2.865h-9.6a.579.579,0,0,0-.493.865h0a.525.525,0,0,0,.493.293h9.6V63.99c0,.418-.049.883-.041,1.327H41.581c-.179,0-.367-.013-.554-.017V61.421a.523.523,0,0,0-.273-.482v0a.581.581,0,0,0-.885.482v4.473a.588.588,0,0,0,.579.579h66.238c3.034,0,6.087.1,9.12,0,.041,0,.082,0,.123,0a.587.587,0,0,0,.579-.579v-40.8c0-1.87.082-3.762,0-5.631,0-.027,0-.053,0-.08" transform="translate(2.766 0.971)"/><path class="f" d="M116.508,19.381v-.532c0-.394.016-.791,0-1.184a2.044,2.044,0,0,0-1.543-1.953,10.427,10.427,0,0,0-2.332-.054h-6.884a.584.584,0,0,0-.463.918h0a.527.527,0,0,0,.463.24h5.85c.917,0,1.835-.016,2.752,0,1.1.018,1,.972,1,1.781v2.865h-9.6a.579.579,0,0,0-.493.865h0a.525.525,0,0,0,.493.293h9.6V63.99c0,.418-.049.883-.041,1.327H41.581c-.179,0-.367-.013-.554-.017V61.421a.523.523,0,0,0-.273-.482v0a.581.581,0,0,0-.885.482v4.473a.588.588,0,0,0,.579.579h66.238c3.034,0,6.087.1,9.12,0,.041,0,.082,0,.123,0a.587.587,0,0,0,.579-.579v-40.8c0-1.87.082-3.762,0-5.631,0-.027,0-.053,0-.08" transform="translate(2.766 0.971)"/><path class="d" d="M34.362,27.466h0" transform="translate(2.347 1.872)"/><path class="d" d="M30.445,24.452l0-.015v.015" transform="translate(2.049 1.642)"/><path class="d" d="M53.249,24.654v-.009l0-.011c-.006-.04-.013-.079-.02-.117a3.628,3.628,0,0,0-.119-.455c-.02-.062-.044-.122-.067-.183l0-.008-.005-.011c-.016-.034-.031-.07-.048-.1a3.749,3.749,0,0,0-.228-.4c-.036-.054-.073-.1-.11-.157l-.005-.008-.006-.008-.073-.088a3.808,3.808,0,0,0-.32-.326c-.047-.043-.1-.083-.145-.124l-.009-.008-.006-.005-.094-.067a3.636,3.636,0,0,0-.394-.237c-.057-.029-.115-.056-.173-.084l-.011-.005-.006,0-.11-.042a3.586,3.586,0,0,0-.45-.13c-.045-.01-.09-.017-.136-.026a.462.462,0,0,1-.2.032,3,3,0,0,0-1.319,5.8,3.225,3.225,0,0,0,2.03.009.521.521,0,0,1,.208-.017c.067-.032.135-.063.2-.1a4.294,4.294,0,0,0,.439-.275l.016-.013.036-.028q.047-.037.09-.077c.06-.053.118-.107.174-.162s.119-.125.175-.189l.054-.066.051-.062a3.76,3.76,0,0,0,.255-.4c.031-.059.061-.118.09-.18.01-.02.018-.042.028-.063s.025-.059.029-.071a3.545,3.545,0,0,0,.14-.468c.015-.067.028-.135.04-.2,0-.024.018-.162,0-.026,0-.042.01-.084.013-.126a3.516,3.516,0,0,0,.006-.5c0-.068-.011-.135-.017-.2" transform="translate(3.325 1.46)"/><path class="d" d="M94.133,19.512V30.438a.527.527,0,0,1-.521.521h-.036c-.275.005-.552,0-.828,0h-20.3a.528.528,0,0,1-.521-.521v-.02c-.015-.5,0-1.013,0-1.517V17.974a.528.528,0,0,1,.521-.521h.034c.277-.005.552,0,.828,0h20.3a.528.528,0,0,1,.521.521.13.13,0,0,0,0,.02c.015.5,0,1.013,0,1.517M92.551,35.119l-2.38,2.1-3.4,3c-.47.415-.968,1.067-1.629,1.081-2.237.048-4.481,0-6.72,0-.762.685-1.5,1.417-2.311,2.041a2.172,2.172,0,0,1-1.395.209H72.986a.579.579,0,0,1,0-1.158h2.456l1.768-1.562c.4-.356.688-.688,1.247-.688h6.659l6.618-5.85c.556-.492,1.377.324.818.818m-.207,5.675v8.486a.528.528,0,0,1-.521.521H89.063a.526.526,0,0,1-.521-.521V39.6a.528.528,0,0,1,.521-.521h2.761a.529.529,0,0,1,.521.521Zm-4.962,8.486a.587.587,0,0,1-.578.579H84.043a.582.582,0,0,1-.579-.579v-6.45a.587.587,0,0,1,.579-.579H86.8a.587.587,0,0,1,.578.579Zm-5.019,0a.587.587,0,0,1-.579.579H79.024a.58.58,0,0,1-.579-.579v-6.45a.587.587,0,0,1,.579-.579h2.761a.587.587,0,0,1,.579.579Zm-5.02,0a.587.587,0,0,1-.578.579H74a.582.582,0,0,1-.579-.579v-4.3A.588.588,0,0,1,74,44.4h2.762a.587.587,0,0,1,.578.579Zm-16.56-7.76H26.454a.579.579,0,0,1,0-1.157h34.33a.579.579,0,0,1,0,1.157m0,3.5H26.454a.579.579,0,0,1,0-1.157h34.33a.579.579,0,0,1,0,1.157m0,3.5H26.454a.579.579,0,0,1,0-1.157h34.33a.579.579,0,0,1,0,1.157M26.943,24.639a7.558,7.558,0,0,1,2.625-4.493,7.678,7.678,0,0,1,4.9-1.753.486.486,0,0,1,.248-.055,7.762,7.762,0,0,1,7.371,7.526l0,.133a.5.5,0,0,1,0,.07,7.82,7.82,0,0,1-3.244,6.19.458.458,0,0,1-.213.074c-.155.1-.312.2-.473.295a7.606,7.606,0,0,1-11.217-7.988M45.607,22.53a7.729,7.729,0,0,1,7.128-4.191.628.628,0,0,1,.268.075,7.46,7.46,0,0,1,2.235.51,7.75,7.75,0,0,1,3.5,2.8A7.607,7.607,0,0,1,60.052,26a7.757,7.757,0,0,1-.256,1.964,7.666,7.666,0,0,1-3.854,4.788.527.527,0,0,1-.224.176,8,8,0,0,1-4.957.55A7.671,7.671,0,0,1,45.607,22.53M101.08,9.69H17.938V58.605c.98-.054,2,.033,2.971.033H42.422v0h61.614c-.058-1.981.015-3.979.015-5.959V9.7c-.989.015-1.982-.006-2.971-.006" transform="translate(1.097 0.52)"/><path class="d" d="M30.446,25.24v.005c0-.03-.016-.093,0-.005" transform="translate(2.048 1.7)"/><path class="d" d="M30.445,24.451l0,.033,0-.033" transform="translate(2.049 1.643)"/><path class="d" d="M32.9,22.024l0,0-.011,0H32.9" transform="translate(2.235 1.458)"/><path class="d" d="M32.86,22.03l.039-.005h-.01c-.038,0-.039.005-.029.005" transform="translate(2.232 1.459)"/><path class="d" d="M33.768,22.076a.73.73,0,0,1-.242-.068,4.2,4.2,0,0,0-.435.018.2.2,0,0,1-.045.006l-.029,0q-.077.013-.155.029c-.1.02-.19.045-.283.074s-.184.061-.274.095l-.006,0-.046.02c-.046.02-.091.043-.138.067a5.458,5.458,0,0,0-.5.311l-.044.036c-.029.025-.058.048-.086.074-.067.058-.131.119-.193.182s-.122.129-.179.2c-.02.024-.04.047-.059.072l-.034.046a3.647,3.647,0,0,0-.278.455c-.024.045-.045.091-.067.138-.005.012-.012.024-.017.033a1.452,1.452,0,0,0-.084.238,3.5,3.5,0,0,0-.124.513v0a.312.312,0,0,1-.006.048v.008c-.005.046-.01.093-.013.14-.005.087-.009.175-.008.263s.005.2.014.3c0,.01.012.088.013.112l.008.045a3.485,3.485,0,0,0,.129.511q.024.074.052.145c0,.01.008.02.011.03l0,.006c.037.074.069.151.108.224a4.019,4.019,0,0,0,.283.452l.006.01c.01.011.018.023.028.034.024.029.048.059.073.087.058.067.119.131.182.194s.128.122.2.18l.083.069.034.026a4.081,4.081,0,0,0,.454.28c.045.024.09.046.137.068l.068.029.074.029.11.039a3.477,3.477,0,0,0,.531.132l.057.009h0q.069.008.139.013c.088.006.175.01.264.01s.184,0,.277-.011l.125-.012.02,0,.013,0c.159-.036.317-.063.475-.112.085-.026.168-.055.251-.087l.019-.008c.04-.018.08-.036.119-.055.069-.034.137-.07.2-.109a.688.688,0,0,1,.18-.178,3,3,0,0,0-1.391-5.467" transform="translate(2.047 1.457)"/><path class="e" d="M104.138,6.533V9.085H20.995c-.968,0-1.992-.088-2.972-.034,0-1.394-.008-2.788,0-4.182a1.117,1.117,0,0,1,1.067-1.258c.094,0,.188,0,.281,0H99.2c1.24,0,2.484.03,3.723,0,.055,0,.109,0,.164,0,1.405.067,1.049,1.98,1.049,2.922m1.157.091V5.889c0-.458.029-.928-.008-1.386A2.234,2.234,0,0,0,103.2,2.464a.619.619,0,0,0-.112-.01h-83.4a5.738,5.738,0,0,0-1.008.039c-2.366.426-1.819,3.451-1.819,5.185V53.231c0,2.143-.088,4.307,0,6.449,0,.029,0,.059,0,.089a.587.587,0,0,0,.578.579H42.508V59.191H20.995c-.968,0-1.991-.088-2.971-.034V10.242h83.142c.989,0,1.982.022,2.972.006V53.231c0,1.98-.073,3.978-.016,5.961H42.508v1.157h58.658c1.133,0,2.272.031,3.4,0,.048,0,.1,0,.146,0a.579.579,0,0,0,.579-.579V23.331h0V17.58h0V13.164c0-2.144.087-4.308,0-6.449,0-.03,0-.06,0-.09" transform="translate(1.011 -0.031)"/><path class="f" d="M104.138,6.533V9.085H20.995c-.968,0-1.992-.088-2.972-.034,0-1.394-.008-2.788,0-4.182a1.117,1.117,0,0,1,1.067-1.258c.094,0,.188,0,.281,0H99.2c1.24,0,2.484.03,3.723,0,.055,0,.109,0,.164,0,1.405.067,1.049,1.98,1.049,2.922m1.157.091V5.889c0-.458.029-.928-.008-1.386A2.234,2.234,0,0,0,103.2,2.464a.619.619,0,0,0-.112-.01h-83.4a5.738,5.738,0,0,0-1.008.039c-2.366.426-1.819,3.451-1.819,5.185V53.231c0,2.143-.088,4.307,0,6.449,0,.029,0,.059,0,.089a.587.587,0,0,0,.578.579H42.508V59.191H20.995c-.968,0-1.991-.088-2.971-.034V10.242h83.142c.989,0,1.982.022,2.972.006V53.231c0,1.98-.073,3.978-.016,5.961H42.508v1.157h58.658c1.133,0,2.272.031,3.4,0,.048,0,.1,0,.146,0a.579.579,0,0,0,.579-.579V23.331h0V17.58h0V13.164c0-2.144.087-4.308,0-6.449,0-.03,0-.06,0-.09" transform="translate(1.011 -0.031)"/><path class="c" d="M33.018,6.61a1.938,1.938,0,1,1,0-.382.619.619,0,0,1,.018.189.61.61,0,0,1-.019.193m-4.439,0a1.938,1.938,0,1,1,0-.382.619.619,0,0,1,.018.189.581.581,0,0,1-.019.193m-4.438,0a1.943,1.943,0,1,1,0-.382.588.588,0,0,1,.018.189.611.611,0,0,1-.018.193M102.71,3.528c-.054,0-.109,0-.162,0-1.231.03-2.466,0-3.7,0H19.559c-.093,0-.186,0-.279,0a1.113,1.113,0,0,0-1.06,1.257c-.009,1.395,0,2.789,0,4.183.974-.054,1.99.033,2.952.033h82.581V6.45c0-.942.354-2.855-1.042-2.922" transform="translate(1.118 0.051)"/><path class="g" d="M20.961,6.268a.785.785,0,0,0,1.57,0,.785.785,0,0,0-1.57,0" transform="translate(1.327 0.202)"/><path class="h" d="M21.043,6.351a.785.785,0,0,1,1.569,0,.785.785,0,0,1-1.569,0m.784-1.942A1.941,1.941,0,1,0,23.75,6.543a.6.6,0,0,0,.019-.192.6.6,0,0,0-.019-.19,1.958,1.958,0,0,0-1.923-1.752" transform="translate(1.245 0.118)"/><path class="c" d="M25.114,6.268a.785.785,0,0,0,1.569,0,.785.785,0,0,0-1.569,0" transform="translate(1.643 0.202)"/><path class="h" d="M25.2,6.351a.785.785,0,0,1,1.569,0,.785.785,0,0,1-1.569,0m.784-1.942A1.941,1.941,0,1,0,27.9,6.543a.6.6,0,0,0,.019-.192.6.6,0,0,0-.019-.19A1.958,1.958,0,0,0,25.98,4.409" transform="translate(1.561 0.118)"/><path class="c" d="M29.266,6.268a.785.785,0,0,0,1.569,0,.785.785,0,0,0-1.569,0" transform="translate(1.959 0.202)"/><path class="h" d="M29.349,6.351a.785.785,0,0,1,1.569,0,.785.785,0,0,1-1.569,0m.784-1.942a1.941,1.941,0,1,0,1.923,2.134.6.6,0,0,0,.019-.192.6.6,0,0,0-.019-.19,1.958,1.958,0,0,0-1.923-1.752" transform="translate(1.877 0.118)"/><path class="g" d="M84.516,38.643v7.965h1.721V37.974H84.516Z" transform="translate(6.163 2.672)"/><path class="h" d="M86.31,40.8v5.882H84.59V38.048H86.31Zm.521-3.794H84.069a.528.528,0,0,0-.52.521V47.2a.526.526,0,0,0,.52.521h2.762a.528.528,0,0,0,.521-.521V37.527a.528.528,0,0,0-.521-.521" transform="translate(6.09 2.599)"/><rect class="d" width="1.604" height="5.293" transform="translate(85.719 43.928)"/><path class="h" d="M81.591,46.4h-1.6V41.107h1.6Zm.579-6.451H79.409a.587.587,0,0,0-.579.579v6.45a.579.579,0,0,0,.579.579H82.17a.587.587,0,0,0,.579-.579v-6.45a.588.588,0,0,0-.579-.579" transform="translate(5.731 2.823)"/><rect class="d" width="1.604" height="5.293" transform="translate(80.699 43.928)"/><path class="h" d="M76.927,46.4h-1.6V41.107h1.6Zm.579-6.451H74.744a.587.587,0,0,0-.578.579v6.45a.579.579,0,0,0,.578.579h2.762a.587.587,0,0,0,.579-.579v-6.45a.588.588,0,0,0-.579-.579" transform="translate(5.376 2.823)"/><rect class="d" width="1.604" height="3.143" transform="translate(75.68 46.078)"/><path class="h" d="M72.262,46.248h-1.6V43.1h1.6Zm.579-4.3H70.079a.587.587,0,0,0-.578.579v4.3a.579.579,0,0,0,.578.579h2.762a.587.587,0,0,0,.579-.579v-4.3a.588.588,0,0,0-.579-.579" transform="translate(5.021 2.975)"/><path class="h" d="M87.879,32.572l-6.618,5.85H74.6c-.56,0-.845.331-1.248.688l-1.768,1.562H69.132a.579.579,0,0,0,0,1.158h1.733a2.165,2.165,0,0,0,1.395-.209c.807-.624,1.551-1.356,2.311-2.041,2.239,0,4.483.047,6.721,0,.661-.014,1.159-.666,1.628-1.081q1.7-1.5,3.4-3l2.38-2.1c.56-.494-.261-1.31-.818-.818" transform="translate(4.95 2.25)"/><path class="h" d="M60.22,38.195H25.892a.579.579,0,0,0,0,1.158H60.22a.579.579,0,0,0,0-1.158" transform="translate(1.66 2.689)"/><path class="h" d="M60.22,41.449H25.892a.579.579,0,0,0,0,1.158H60.22a.579.579,0,0,0,0-1.158" transform="translate(1.66 2.937)"/><path class="h" d="M60.22,44.7H25.892a.579.579,0,0,0,0,1.158H60.22a.579.579,0,0,0,0-1.158" transform="translate(1.66 3.184)"/><path class="g" d="M87.119,17.872H69.087c0,.339-.011.68-.011,1.017v10.4c.114,0,.228,0,.342,0H89.194c0-.339.005-.679.005-1.017v-10.4c-.114,0-.227,0-.341,0Z" transform="translate(4.989 1.143)"/><path class="h" d="M89.274,18.668v9.685c0,.338-.006.677-.006,1.017H69.493c-.114,0-.228,0-.342,0v-10.4c0-.337.011-.678.011-1.017H88.933c.113,0,.227,0,.341,0Zm1.042-1.243a.528.528,0,0,0-.521-.521h-20.3c-.275,0-.552-.005-.828,0H68.63a.529.529,0,0,0-.521.521V28.353c0,.5-.015,1.012,0,1.516a.131.131,0,0,1,0,.02.528.528,0,0,0,.521.521h20.3c.275,0,.551.006.828,0h.034a.526.526,0,0,0,.521-.521V18.963c0-.5.015-1.013,0-1.516v-.022" transform="translate(4.914 1.069)"/><path class="d" d="M49.394,28.65,49.165,31a6.642,6.642,0,0,0,3.041-.3l-1.258-2.1a4.289,4.289,0,0,1-1.554.041" transform="translate(3.473 1.96)"/><path class="d" d="M44.022,24.339a6.573,6.573,0,0,0,4.408,7.137l.239-2.444a4.225,4.225,0,0,1-2.354-3.63.585.585,0,0,1-.005-.1.739.739,0,0,1,0-.085,4.218,4.218,0,0,1,3.864-4.054V18.808a6.577,6.577,0,0,0-6.154,5.531" transform="translate(3.077 1.214)"/><path class="h" d="M57.044,24.42c0,.016.006.037.009.055.015.094.023.188.031.283.018.21.027.42.028.63a7.271,7.271,0,0,1-.048.824l0,.027,0,.034,0,.024,0-.019v.009c-.011.063-.019.127-.031.189-.023.132-.049.265-.08.395a7.31,7.31,0,0,1-.226.764c-.018.052-.038.1-.057.156-.011.026-.02.052-.031.076l-.013.033-.03.072-.033.075c-.029.062-.058.125-.088.187a7.157,7.157,0,0,1-.382.681c-.062.1-.127.195-.194.289l-.108.149-.019.025-.05.065a7.188,7.188,0,0,1-1.062,1.071c-.02.017-.042.034-.063.051l-.037.029-.168.124c-.117.083-.237.162-.358.238-.1.061-.2.118-.3.175Q53.085,30.066,52.447,29a4.083,4.083,0,0,0,.683-6.789,4.214,4.214,0,0,0-1.773-.834V18.868l.022,0,.028,0,.111.016c.091.015.183.031.273.048a7.162,7.162,0,0,1,1,.275c.079.029.157.058.235.089l.079.032.082.036q.237.107.465.23a7.063,7.063,0,0,1,.853.543l.05.037.071.057c.069.056.138.113.2.171.124.108.244.221.362.337s.238.246.35.377c.054.062.107.125.158.189l.071.089c-.065-.082-.005-.005.023.031a7.114,7.114,0,0,1,.552.871c.079.146.153.3.221.448l.038.086c0,.01.014.033.023.056.034.084.066.169.1.254a7.168,7.168,0,0,1,.3,1.116l.026.157M54.53,30.608l.006,0-.006,0m-4.888,1.22q.113-1.175.229-2.35a4.266,4.266,0,0,0,1.554-.041l1.257,2.1a6.653,6.653,0,0,1-3.04.295m-2.1-6.442a3.044,3.044,0,0,1,3.29-2.985.479.479,0,0,0,.2-.032c.045.009.09.016.136.026a3.586,3.586,0,0,1,.45.13c.037.013.073.028.11.042l.006,0,.011.005c.058.028.116.054.173.084a3.471,3.471,0,0,1,.394.237c.032.022.062.045.094.067l.006.005.009.006c.048.042.1.082.145.124a3.821,3.821,0,0,1,.32.327l.073.088.006.008.005.008c.037.053.074.1.11.157a3.749,3.749,0,0,1,.228.4c.017.034.032.07.048.1l.005.011,0,.008c.023.06.046.121.067.182a3.727,3.727,0,0,1,.119.455c.008.04.014.079.02.117l0,.012v.009c.006.067.013.133.017.2a3.529,3.529,0,0,1-.006.5c0,.042-.009.084-.013.125.014-.136,0,0,0,.027-.012.068-.025.136-.04.2a3.482,3.482,0,0,1-.14.467c0,.013-.023.057-.029.072s-.018.043-.028.063c-.029.06-.059.121-.09.179a3.559,3.559,0,0,1-.255.4c-.01.014-.054.068-.051.063l-.054.066c-.056.065-.115.128-.175.189s-.114.11-.174.162l-.09.077-.036.028-.016.012a4.123,4.123,0,0,1-.439.277c-.066.034-.133.066-.2.1a.5.5,0,0,0-.208.017,3.225,3.225,0,0,1-2.03-.009,3.051,3.051,0,0,1-1.97-2.817m.964,6.172a6.5,6.5,0,0,1,1.747-12.668v2.357A4.216,4.216,0,0,0,46.393,25.3a.542.542,0,0,0,0,.085.6.6,0,0,0,.005.1,4.225,4.225,0,0,0,2.354,3.63l-.239,2.444m2.928-12.682-.027,0,.027,0m1.9-.565A7.486,7.486,0,0,0,51.1,17.8a.616.616,0,0,0-.268-.074,7.665,7.665,0,0,0-1.974,15.136,7.991,7.991,0,0,0,4.958-.549.534.534,0,0,0,.223-.178A7.66,7.66,0,0,0,57.9,27.351a7.758,7.758,0,0,0,.257-1.964,7.621,7.621,0,0,0-1.319-4.279,7.752,7.752,0,0,0-3.5-2.8" transform="translate(2.996 1.131)"/><path class="i" d="M50.836,18.8l-.027,0,.027,0" transform="translate(3.598 1.213)"/><path class="i" d="M53.714,29.693h0" transform="translate(3.819 2.042)"/><path class="g" d="M56.455,24.392c0-.017-.006-.039-.009-.055-.009-.052-.017-.1-.027-.156a6.878,6.878,0,0,0-.3-1.116c-.03-.086-.062-.17-.1-.253-.009-.024-.019-.047-.023-.058-.013-.027-.025-.056-.038-.084q-.1-.228-.221-.449a7.008,7.008,0,0,0-.553-.872c-.027-.037-.087-.112-.022-.03l-.071-.09c-.053-.062-.105-.127-.159-.188-.112-.129-.228-.255-.35-.376s-.237-.23-.362-.339c-.067-.057-.135-.115-.2-.17-.012-.011-.053-.042-.072-.057s-.042-.031-.048-.038a7.2,7.2,0,0,0-.853-.543c-.152-.082-.308-.159-.465-.23l-.082-.034-.079-.033q-.116-.047-.236-.087a6.841,6.841,0,0,0-1-.275c-.09-.019-.182-.036-.273-.05-.037-.006-.073-.011-.111-.016l-.027,0-.023,0V21.3a4.211,4.211,0,0,1,1.773.832,4.083,4.083,0,0,1-.682,6.79l1.276,2.125c.1-.055.2-.113.3-.173.122-.076.24-.156.357-.239.057-.041.113-.082.168-.125a.426.426,0,0,0,.038-.028l.063-.051a7.144,7.144,0,0,0,1.062-1.072l.05-.062.018-.026c.037-.048.073-.1.109-.15.067-.094.131-.19.194-.288a7.045,7.045,0,0,0,.381-.681c.031-.062.06-.125.088-.186l.034-.077.03-.071.013-.032c.011-.027.02-.052.03-.079.02-.052.04-.1.058-.156a6.779,6.779,0,0,0,.225-.764c.031-.129.058-.261.081-.394.011-.062.02-.127.03-.188l0-.01,0-.038,0-.028a7.559,7.559,0,0,0,.047-.824c0-.21-.009-.421-.027-.628-.009-.095-.017-.192-.031-.285" transform="translate(3.595 1.212)"/><path class="i" d="M56.058,25.636l0,.033,0-.033" transform="translate(3.998 1.733)"/><path class="i" d="M56.052,25.692l0-.025v0l0,.02" transform="translate(3.997 1.736)"/><path class="h" d="M56.054,25.675v0l0-.033,0,.038" transform="translate(3.998 1.734)"/><path class="d" d="M34.069,18.856v2.4a4.2,4.2,0,0,1,3.211,3.334h2.381a6.58,6.58,0,0,0-5.592-5.733" transform="translate(2.325 1.218)"/><path class="i" d="M27.207,25.65v0Z" transform="translate(1.802 1.734)"/><path class="i" d="M35.637,30.471h0" transform="translate(2.444 2.1)"/><path class="g" d="M33.725,29.407A4.161,4.161,0,0,1,31.038,28.4a4.105,4.105,0,0,1-1.114-4.61,4.187,4.187,0,0,1,1.615-1.943A4.058,4.058,0,0,1,33.5,21.22V18.749c-.058,0-.117,0-.176.005-.107.005-.214.014-.321.025l-.158.018-.024,0-.036.006c-.208.032-.414.073-.618.124s-.4.108-.6.175c-.1.033-.194.069-.289.107-.045.017-.09.034-.135.054l-.061.028a7.076,7.076,0,0,0-1.065.6c-.089.06-.176.123-.264.187l-.065.051-.084.067c-.156.129-.308.264-.452.4s-.284.288-.416.441c-.071.082-.137.167-.206.249v0a.276.276,0,0,0-.022.028c-.031.041-.06.082-.09.123a7.1,7.1,0,0,0-.624,1.048c-.025.052-.048.1-.073.156-.01.024-.02.047-.031.071l0,.01-.018.043-.029.071-.048.126c-.072.194-.137.392-.192.591s-.1.407-.14.612c-.012.065-.023.13-.032.195,0,.017-.005.034-.008.051-.012.1-.023.192-.03.287a7.145,7.145,0,0,0,.009,1.314c.005.054.012.107.018.16a.122.122,0,0,1,.006.052v.006c.016.1.033.208.054.311q.061.308.149.609t.2.588c.02.052.04.1.062.154l.027.059c.04.087.081.174.124.259a7.123,7.123,0,0,0,.637,1.038c.017.024.132.168.045.061.032.039.062.08.095.118.06.073.123.145.185.216q.2.228.422.436t.458.4l.025.02.034.027.123.089c.077.056.156.11.235.161a9.335,9.335,0,0,0,1.075.582h0l.07.028.144.056c.09.033.182.066.274.1.2.065.4.121.6.168.109.025.218.047.328.068l.156.027.06.009h.008a2.642,2.642,0,0,1,.309.037c.107.009.214.015.322.019a7.037,7.037,0,0,0,.738-.009c.132-.009.265-.022.4-.037l.02,0c.028,0,.057-.008.086-.013q.1-.015.194-.032a7.353,7.353,0,0,0,.755-.183c.123-.038.244-.077.365-.122.06-.022.121-.044.18-.068l.089-.036.01,0a7.811,7.811,0,0,0,.773-.4L35.516,28.99a4.17,4.17,0,0,1-1.791.416" transform="translate(1.799 1.209)"/><path class="i" d="M32.4,30.891h0" transform="translate(2.198 2.133)"/><path class="i" d="M27.21,25.67a.122.122,0,0,0,.005.032.421.421,0,0,0-.008-.048l0,.016" transform="translate(1.802 1.735)"/><path class="i" d="M32.4,30.891l.018,0c.069.011.013-.005-.012-.005l-.006,0" transform="translate(2.198 2.133)"/><path class="h" d="M30.441,24.485a.163.163,0,0,0,.006-.048l0,.015,0,.033" transform="translate(2.049 1.642)"/><path class="h" d="M32.86,22.031a.19.19,0,0,0,.045-.006H32.9l-.039.005" transform="translate(2.233 1.459)"/><path class="h" d="M38.022,30.335l-1.453-1.876a4.219,4.219,0,0,0,1.355-2.626h2.361a6.59,6.59,0,0,1-2.263,4.5m-1.674,1.108-.011,0-.088.036c-.06.024-.119.046-.18.068-.121.044-.242.084-.366.122a7.219,7.219,0,0,1-.755.183q-.1.018-.194.032c-.029.005-.057.009-.086.013l-.02,0c-.131.015-.264.028-.4.037a7.043,7.043,0,0,1-.738.009q-.161-.006-.323-.019a2.614,2.614,0,0,0-.309-.037c.024,0,.081.015.011,0l-.017,0h0l-.06-.009-.156-.027c-.11-.02-.218-.043-.327-.068q-.305-.071-.6-.168c-.091-.03-.183-.062-.273-.1l-.144-.056-.07-.028h0a9.247,9.247,0,0,1-1.075-.582q-.119-.077-.236-.161c-.041-.029-.082-.059-.122-.09l-.036-.026-.025-.02c-.157-.127-.311-.259-.457-.4s-.287-.284-.422-.436c-.063-.071-.125-.143-.185-.216-.032-.039-.063-.08-.095-.118.086.107-.028-.038-.045-.061a7.13,7.13,0,0,1-.638-1.038c-.043-.086-.084-.172-.123-.259-.006-.014-.018-.039-.027-.059-.023-.051-.042-.1-.062-.154q-.113-.289-.2-.588t-.149-.609c-.02-.1-.039-.207-.054-.311v-.006l-.005-.033v-.019h0c-.006-.054-.012-.107-.017-.16a7.241,7.241,0,0,1-.01-1.314c.009-.1.019-.192.031-.287l.006-.051c.011-.065.022-.13.033-.195q.056-.308.14-.612c.055-.2.119-.4.192-.591.015-.042.032-.084.048-.126l.029-.071c0-.009.012-.03.018-.043l0-.01.031-.071c.024-.052.048-.1.073-.156a7.049,7.049,0,0,1,.624-1.048l.089-.123.023-.028v0c.069-.082.135-.167.206-.249q.2-.229.415-.441t.453-.4l.083-.067.066-.051c.086-.065.174-.127.263-.187a7.14,7.14,0,0,1,1.066-.6l.061-.028c.043-.019.088-.037.133-.054q.144-.056.291-.107c.2-.068.4-.126.6-.175s.411-.091.619-.124l.034-.006.024,0,.159-.018c.107-.011.214-.019.321-.025.059,0,.117,0,.176-.005V21.3a4.062,4.062,0,0,0-1.956.625A4.2,4.2,0,0,0,30,23.866a4.109,4.109,0,0,0,1.114,4.61,4.076,4.076,0,0,0,4.479.592l1.53,1.977a8.031,8.031,0,0,1-.772.4m.006,0c.049-.022.024-.01,0,0m-5.586-5.626v-.005c-.015-.087,0-.026,0,.005m4.214,2.393h0m-1.135-5.873a.756.756,0,0,0,.242.068,3,3,0,0,1,1.391,5.467.705.705,0,0,0-.18.178c-.067.038-.135.074-.2.109-.04.019-.08.037-.119.055l-.019.008c-.083.031-.166.061-.251.087-.157.048-.315.076-.475.112l-.013,0-.02,0-.125.012c-.093.008-.184.01-.277.011s-.175,0-.264-.01c-.046,0-.093-.009-.139-.013h0l-.057-.009a3.749,3.749,0,0,1-.531-.132l-.11-.039-.074-.029c-.02-.009-.058-.025-.068-.03-.046-.022-.091-.044-.137-.067a3.935,3.935,0,0,1-.454-.281l-.034-.025-.083-.07c-.068-.057-.133-.117-.2-.179s-.124-.127-.182-.194l-.073-.087-.028-.036-.006-.009a4.18,4.18,0,0,1-.283-.452c-.039-.074-.071-.15-.108-.225l0-.005-.01-.03c-.019-.048-.037-.1-.053-.145a3.485,3.485,0,0,1-.129-.511l-.008-.045c0-.024-.012-.1-.013-.112-.009-.1-.014-.2-.014-.3s0-.175.008-.264q0-.069.013-.139V25l0-.033,0-.019v0a3.482,3.482,0,0,1,.124-.512,1.452,1.452,0,0,1,.084-.238c.005-.01.012-.022.017-.033.022-.046.043-.093.067-.138a3.57,3.57,0,0,1,.278-.455l.034-.046c.019-.025.039-.048.059-.072.057-.068.116-.133.179-.2s.126-.124.193-.182c.028-.026.057-.051.086-.074l.044-.036a5.713,5.713,0,0,1,.5-.312l.138-.067.046-.02.006,0c.09-.034.182-.068.274-.1s.187-.053.283-.073l.155-.03.029,0c-.011,0-.01,0,.029-.005H33.4l.011,0,0,0a3.916,3.916,0,0,1,.435-.018m.821-3.392a6.579,6.579,0,0,1,5.591,5.733h-2.38a4.2,4.2,0,0,0-3.211-3.334Zm-.579-1.214a.5.5,0,0,0-.248.054,7.673,7.673,0,0,0-4.9,1.754,7.569,7.569,0,0,0-2.625,4.493A7.606,7.606,0,0,0,37.53,32.016c.162-.091.319-.192.473-.3a.439.439,0,0,0,.213-.074,7.819,7.819,0,0,0,3.246-6.19c0-.023,0-.045,0-.07,0-.044,0-.088,0-.132a7.761,7.761,0,0,0-7.371-7.526" transform="translate(1.726 1.132)"/><path class="h" d="M32.4,30.891l.006,0Z" transform="translate(2.198 2.133)"/><path class="h" d="M27.208,25.653a.485.485,0,0,1,.006.048.119.119,0,0,0-.006-.051v0" transform="translate(1.802 1.735)"/><path class="d" d="M35.836,27.885l1.453,1.876a6.59,6.59,0,0,0,2.263-4.5H37.191a4.206,4.206,0,0,1-1.355,2.626" transform="translate(2.459 1.705)"/><path class="d" d="M8.463,60.463,7.438,61.489,4.695,64.231c-.292.292-1.443,1.111-1.026,1.6q.328.328.654.654c.2.2.462.581.778.522.223-.042.41-.3.563-.454L8.224,64l1.922-1.921a7.943,7.943,0,0,1-1.683-1.612" transform="translate(0.004 4.384)"/><path class="d" d="M19.988,59.963A6.778,6.778,0,0,1,12.5,58.7a.812.812,0,0,1-.063-.059.855.855,0,0,1-.061-.066,6.675,6.675,0,1,1,7.618,1.387m.61-13.609A8.31,8.31,0,1,0,25.427,54.7,8.4,8.4,0,0,0,20.6,46.353" transform="translate(0.407 3.254)"/><path class="e" d="M25.913,54.8a8.309,8.309,0,0,1-15.147,3.887,8.311,8.311,0,0,1,10.319-12.23A8.412,8.412,0,0,1,25.913,54.8M9.631,64.273,6.487,67.418c-.187.187-.418.5-.692.556-.388.073-.712-.4-.954-.64l-.8-.8c-.513-.6.9-1.609,1.258-1.967q1.685-1.685,3.369-3.369l1.259-1.258a9.765,9.765,0,0,0,2.066,1.979L9.631,64.273m13.476-18.3a9.726,9.726,0,0,0-14.3,12.116c.1.215.2.426.317.632q-.334.339-.67.677Q6.325,61.525,4.2,63.655c-.357.357-.723.706-1.072,1.072a1.979,1.979,0,0,0-.207,2.66.7.7,0,0,0,.116.148.61.61,0,0,0,.068.071,10.061,10.061,0,0,0,1.54,1.482,1.98,1.98,0,0,0,2.5-.31c.83-.788,1.621-1.622,2.43-2.431l3.675-3.674A9.608,9.608,0,0,0,18.517,63.7a9.724,9.724,0,0,0,4.591-17.73" transform="translate(-0.078 3.155)"/><path class="d" d="M18.161,51.735,15.147,54.7c-.652.641-1.657-.363-1-1.005l3.014-2.965c.652-.642,1.657.363,1,1.005m-.732-3.27a5.261,5.261,0,1,0,4.616,3.974,5.322,5.322,0,0,0-4.616-3.974" transform="translate(0.621 3.469)"/><path class="h" d="M19.948,58.189a5.262,5.262,0,1,1,2.2-5.648,5.331,5.331,0,0,1-2.2,5.648m-1.265-10.86a6.678,6.678,0,0,0-6.425,11.132.694.694,0,0,0,.061.066.812.812,0,0,0,.063.059,6.677,6.677,0,1,0,6.3-11.257" transform="translate(0.522 3.369)"/><path class="g" d="M17,50.585l-3.014,2.965c-.653.642.352,1.646,1.005,1L18,51.59c.653-.642-.352-1.648-1.005-1.005" transform="translate(0.78 3.616)"/></g></g></svg>