<svg xmlns="http://www.w3.org/2000/svg" xmlns:xlink="http://www.w3.org/1999/xlink" width="78.837" height="87.746" viewBox="0 0 78.837 87.746"><defs><style>.a,.d,.h{fill:none;}.b{clip-path:url(#a);}.c{fill:#323232;}.d{stroke:#fff;stroke-width:0.3px;}.e{fill:#fff;}.f{fill:#e9e9e9;}.g{fill:#ec711e;stroke-miterlimit:10;}.g,.h{stroke:#ec711e;}</style><clipPath id="a"><rect class="a" width="78.837" height="87.746"/></clipPath></defs><g class="b"><path class="c" d="M45.148,9.6a.929.929,0,0,1-.929-.929V5.327a.929.929,0,1,1,1.858,0V8.668a.929.929,0,0,1-.929.929" transform="translate(-0.182 -0.151)"/><path class="d" d="M45.148,9.6a.929.929,0,0,1-.929-.929V5.327a.929.929,0,1,1,1.858,0V8.668a.929.929,0,0,1-.929.929" transform="translate(-0.182 -0.151)"/><path class="c" d="M39.517,10.347a.929.929,0,0,1-.748-.377L37.026,7.607a.929.929,0,1,1,1.495-1.1l1.743,2.362a.929.929,0,0,1-.747,1.481" transform="translate(-0.182 -0.151)"/><path class="d" d="M39.517,10.347a.929.929,0,0,1-.748-.377L37.026,7.607a.929.929,0,1,1,1.495-1.1l1.743,2.362a.929.929,0,0,1-.747,1.481" transform="translate(-0.182 -0.151)"/><path class="c" d="M50.779,10.347a.929.929,0,0,1-.747-1.481L51.775,6.5a.929.929,0,1,1,1.495,1.1L51.527,9.97a.929.929,0,0,1-.748.377" transform="translate(-0.182 -0.151)"/><path class="d" d="M50.779,10.347a.929.929,0,0,1-.747-1.481L51.775,6.5a.929.929,0,1,1,1.495,1.1L51.527,9.97a.929.929,0,0,1-.748.377" transform="translate(-0.182 -0.151)"/><path class="e" d="M22.853,58.591s2.646-5.429,6.742-6.949c3.266-1.212,10.726.206,10.726.206s7.478-2.626,10.747-1.759,2.171,3.028,2.171,3.028L55.66,52.9s4.06-2.263,6.164-3.167a16.326,16.326,0,0,1,7.282-1.569c1.179.118,2.243.7,2.008,2.226-.207,1.35-1.853,2.084-1.853,2.084s1.2,2.642-.945,4.026-8.8,4.875-8.8,4.875l-11.322,4.58s-13.232,1.33-17.945,3.9l-6.606,4.376-7.8-11.277Z" transform="translate(-0.182 -0.151)"/><path class="c" d="M39.317,58.562a.929.929,0,0,1-.137-1.848l5.844-.88,7.83-3.561a.929.929,0,0,1,.769,1.691l-7.948,3.615a.917.917,0,0,1-.246.073l-5.972.9a.951.951,0,0,1-.14.01" transform="translate(-0.182 -0.151)"/><path class="c" d="M49.826,61.958a.929.929,0,0,1-.343-1.793l8.551-3.379c.314-.163,2.406-1.246,5.254-2.774a31.6,31.6,0,0,1,5.719-2.435.929.929,0,1,1,.507,1.787,30.489,30.489,0,0,0-5.347,2.285c-3.093,1.659-5.3,2.8-5.323,2.809s-.056.027-.084.039l-8.593,3.4a.937.937,0,0,1-.341.065" transform="translate(-0.182 -0.151)"/><rect class="e" width="12.548" height="20.121" transform="translate(6.613 65.38) rotate(-34.998)"/><path class="c" d="M18.336,82.942a.964.964,0,0,1-.161-.014.928.928,0,0,1-.6-.382L6.034,66.064A.929.929,0,1,1,7.556,65L18.564,80.719l8.757-6.131L16.313,58.866A.929.929,0,1,1,17.835,57.8L29.376,74.283a.93.93,0,0,1-.228,1.294l-10.279,7.2a.93.93,0,0,1-.533.168" transform="translate(-0.182 -0.151)"/><rect class="f" width="12.459" height="24.789" transform="translate(0.928 66.51) rotate(-35.001)"/><path class="c" d="M15.33,87.9a.929.929,0,0,1-.534-1.69l9.445-6.613L11.088,60.81,1.644,67.423A.929.929,0,1,1,.578,65.9l10.2-7.146a.93.93,0,0,1,1.294.228L26.3,79.289a.929.929,0,0,1-.228,1.294l-10.2,7.146a.928.928,0,0,1-.532.168" transform="translate(-0.182 -0.151)"/><path class="c" d="M30.248,70.779a.929.929,0,0,1-.446-1.745c4.62-2.518,16.676-3.838,18.164-3.993l11.157-4.514c.558-.294,6.687-3.522,8.689-4.813,1.413-.909.688-2.666.6-2.863a.934.934,0,0,1,.469-1.229c.3-.14,1.21-.7,1.314-1.377a.958.958,0,0,0-.11-.737,1.586,1.586,0,0,0-1.073-.424,15.124,15.124,0,0,0-6.823,1.5c-2.037.874-6.038,3.1-6.078,3.124a.941.941,0,0,1-.368.114l-2.421.221a.932.932,0,0,1-.871-.4.905.905,0,0,1-.045-.937.986.986,0,0,0,0-.765,2.361,2.361,0,0,0-1.58-.952c-2.452-.65-8.2,1.035-10.2,1.739a.936.936,0,0,1-.481.036c-2.005-.381-7.752-1.167-10.229-.248-3.692,1.37-6.206,6.435-6.23,6.485a.929.929,0,0,1-1.67-.814c.115-.235,2.86-5.783,7.254-7.413,3.159-1.172,9.611-.122,10.975.12,1.471-.5,7.84-2.553,11.059-1.7a3.931,3.931,0,0,1,2.807,2,2.667,2.667,0,0,1,.225.891l1.042-.1c.808-.447,4.177-2.3,6.077-3.113,1.7-.731,4.974-1.917,7.741-1.64a3.287,3.287,0,0,1,2.356,1.135,2.722,2.722,0,0,1,.478,2.156,3.664,3.664,0,0,1-1.651,2.368,3.882,3.882,0,0,1-1.562,4.382c-2.158,1.391-8.6,4.774-8.874,4.917-.027.014-.054.027-.083.039L48.54,66.813a.944.944,0,0,1-.255.063c-.131.013-13.1,1.34-17.593,3.79a.928.928,0,0,1-.444.113" transform="translate(-0.182 -0.151)"/><path class="g" d="M4.756,25.02V20.075H1.239a1.239,1.239,0,1,1,0-2.478H4.756v-3.23H1.239a1.238,1.238,0,1,1,0-2.477H3.68L.208,6.682A1.238,1.238,0,0,1,2.269,5.308L5.995,10.9,9.72,5.308a1.239,1.239,0,0,1,2.062,1.373L8.309,11.891h2.442a1.238,1.238,0,1,1,0,2.477H7.233V17.6h3.517a1.239,1.239,0,1,1,0,2.478H7.233V25.02a1.239,1.239,0,1,1-2.478,0Zm13.638-5.946V7.184a7.184,7.184,0,1,1,14.368,0v11.89a7.184,7.184,0,1,1-14.368,0ZM20.87,7.184v11.89a4.707,4.707,0,0,0,9.414,0V7.184a4.707,4.707,0,0,0-9.414,0Z" transform="translate(27.966 15.745)"/><path class="h" d="M53.725,18.373a4.712,4.712,0,0,0-4.707,4.707V34.97a4.707,4.707,0,0,0,9.414,0V23.08a4.712,4.712,0,0,0-4.707-4.707m0,23.781a7.192,7.192,0,0,1-7.184-7.184V23.08a7.184,7.184,0,1,1,14.368,0V34.97a7.192,7.192,0,0,1-7.184,7.184" transform="translate(-0.182 -0.151)"/><path class="h" d="M38.9,30.264a1.238,1.238,0,1,0,0-2.477H36.457l3.473-5.209A1.239,1.239,0,0,0,37.868,21.2l-3.725,5.589L30.417,21.2a1.239,1.239,0,0,0-2.061,1.374l3.472,5.209H29.387a1.238,1.238,0,1,0,0,2.477H32.9v3.23H29.387a1.239,1.239,0,1,0,0,2.477H32.9v4.945a1.239,1.239,0,1,0,2.477,0V35.971H38.9a1.239,1.239,0,1,0,0-2.477H35.381v-3.23Z" transform="translate(-0.182 -0.151)"/><path class="e" d="M65.908,12.916C65.908,10.943,68,7,69.969,7,68,7,65.908,3.051,65.908,1.078,65.908,3.051,63.82,7,61.847,7c1.973,0,4.061,3.946,4.061,5.919" transform="translate(-0.182 -0.151)"/><path class="c" d="M63.969,7a8.711,8.711,0,0,1,1.939,2.645A8.705,8.705,0,0,1,67.845,7a8.705,8.705,0,0,1-1.937-2.645A8.711,8.711,0,0,1,63.969,7m1.939,6.848a.929.929,0,0,1-.929-.929c0-1.675-1.9-4.99-3.132-4.99a.929.929,0,1,1,0-1.858c1.229,0,3.132-3.315,3.132-4.99a.929.929,0,1,1,1.857,0c0,1.675,1.9,4.99,3.132,4.99a.929.929,0,1,1,0,1.858c-1.229,0-3.132,3.315-3.132,4.99a.929.929,0,0,1-.928.929" transform="translate(-0.182 -0.151)"/><path class="d" d="M63.969,7a8.711,8.711,0,0,1,1.939,2.645A8.705,8.705,0,0,1,67.845,7a8.705,8.705,0,0,1-1.937-2.645A8.711,8.711,0,0,1,63.969,7m1.939,6.848a.929.929,0,0,1-.929-.929c0-1.675-1.9-4.99-3.132-4.99a.929.929,0,1,1,0-1.858c1.229,0,3.132-3.315,3.132-4.99a.929.929,0,1,1,1.857,0c0,1.675,1.9,4.99,3.132,4.99a.929.929,0,1,1,0,1.858c-1.229,0-3.132,3.315-3.132,4.99a.929.929,0,0,1-.928.929" transform="translate(-0.182 -0.151)"/><path class="e" d="M74.029,38.937c0-1.973,2.088-5.919,4.061-5.919-1.973,0-4.061-3.946-4.061-5.919,0,1.973-2.088,5.919-4.061,5.919,1.973,0,4.061,3.946,4.061,5.919" transform="translate(-0.182 -0.151)"/><path class="c" d="M72.091,33.018a8.708,8.708,0,0,1,1.938,2.645,8.708,8.708,0,0,1,1.938-2.645,8.708,8.708,0,0,1-1.938-2.645,8.708,8.708,0,0,1-1.938,2.645m1.938,6.848a.929.929,0,0,1-.929-.929c0-1.675-1.9-4.99-3.132-4.99a.929.929,0,1,1,0-1.858c1.229,0,3.132-3.315,3.132-4.99a.929.929,0,1,1,1.858,0c0,1.675,1.9,4.99,3.132,4.99a.929.929,0,1,1,0,1.858c-1.229,0-3.132,3.315-3.132,4.99a.929.929,0,0,1-.929.929" transform="translate(-0.182 -0.151)"/><path class="d" d="M72.091,33.018a8.708,8.708,0,0,1,1.938,2.645,8.708,8.708,0,0,1,1.938-2.645,8.708,8.708,0,0,1-1.938-2.645,8.708,8.708,0,0,1-1.938,2.645m1.938,6.848a.929.929,0,0,1-.929-.929c0-1.675-1.9-4.99-3.132-4.99a.929.929,0,1,1,0-1.858c1.229,0,3.132-3.315,3.132-4.99a.929.929,0,1,1,1.858,0c0,1.675,1.9,4.99,3.132,4.99a.929.929,0,1,1,0,1.858c-1.229,0-3.132,3.315-3.132,4.99a.929.929,0,0,1-.929.929" transform="translate(-0.182 -0.151)"/><path class="e" d="M15.842,30.428c0-1.973,2.088-5.919,4.061-5.919-1.973,0-4.061-3.946-4.061-5.919,0,1.973-2.088,5.919-4.061,5.919,1.973,0,4.061,3.946,4.061,5.919" transform="translate(-0.182 -0.151)"/><path class="c" d="M13.9,24.51a8.708,8.708,0,0,1,1.938,2.645A8.708,8.708,0,0,1,17.78,24.51a8.708,8.708,0,0,1-1.938-2.645A8.708,8.708,0,0,1,13.9,24.51m1.938,6.848a.929.929,0,0,1-.929-.929c0-1.675-1.9-4.99-3.132-4.99a.929.929,0,1,1,0-1.858c1.229,0,3.132-3.315,3.132-4.99a.929.929,0,0,1,1.858,0c0,1.675,1.9,4.99,3.132,4.99a.929.929,0,1,1,0,1.858c-1.229,0-3.132,3.315-3.132,4.99a.929.929,0,0,1-.929.929" transform="translate(-0.182 -0.151)"/><path class="d" d="M13.9,24.51a8.708,8.708,0,0,1,1.938,2.645A8.708,8.708,0,0,1,17.78,24.51a8.708,8.708,0,0,1-1.938-2.645A8.708,8.708,0,0,1,13.9,24.51m1.938,6.848a.929.929,0,0,1-.929-.929c0-1.675-1.9-4.99-3.132-4.99a.929.929,0,1,1,0-1.858c1.229,0,3.132-3.315,3.132-4.99a.929.929,0,0,1,1.858,0c0,1.675,1.9,4.99,3.132,4.99a.929.929,0,1,1,0,1.858c-1.229,0-3.132,3.315-3.132,4.99a.929.929,0,0,1-.929.929" transform="translate(-0.182 -0.151)"/></g></svg>