<svg xmlns="http://www.w3.org/2000/svg" xmlns:xlink="http://www.w3.org/1999/xlink" width="421" height="343.648" viewBox="0 0 421 343.648"><defs><style>.a,.c{fill:#fff;}.a{stroke:#707070;}.b{clip-path:url(#a);}.c{opacity:0.2;}</style><clipPath id="a"><rect class="a" width="421" height="343.649"/></clipPath></defs><g class="b"><path class="c" d="M86.592,371.647Q17.076,320.912,3.069,238.25a197.089,197.089,0,0,1,10.39-106.2,200.707,200.707,0,0,1,63.6-85.607,209.467,209.467,0,0,1,99.63-43.62Q261.143-10.514,332.08,39.2q70.877,49.774,85.333,135.039,14.42,84.438-35.828,152.472T245.83,408.23a244.717,244.717,0,0,1-38.174,3.086Q140.953,411.314,86.592,371.647ZM178.966,23.679Q102.3,35.669,58.811,95.686T28.789,235.414q15.029,88.859,89.563,130.179,57.96,32.291,124.114,21.915,74.766-11.817,118.521-72.526,43.8-60.7,30.79-137.568Q378.9,100.985,316.886,56.338,268,21.14,210.472,21.142A201.9,201.9,0,0,0,178.966,23.679Zm90.867,340.876L204.92,343.536l-.339-.121c-19.043,6.074-41.378,8.512-67.406,5.641a173.448,173.448,0,0,1-18.4-4.085C91.1,335.955,71.048,312.639,66.943,284.71c-.177-.952-.4-1.763-.537-2.68-5.753-31.526,13.583-62.281,45.2-71.9s65.715,4.886,79.71,33.9,3.547,63.555-24.421,80.731c30.451,1.435,65.971-7.661,94.936-46.354-47.382-13.519-75.375-60.624-63.572-106.948l-16.279-8.336c-19.8,25.683-56.6,32.578-84.916,15.906S58.243,127.62,72.821,98.854s49.437-42.068,80.44-30.7,47.94,43.66,39.083,74.516l15.8,5.188c21.615-35.823,65.929-52.56,106.974-40.4s68.016,50.022,65.1,91.384-34.941,75.347-77.321,82.031a95.578,95.578,0,0,1-22.908.917,154.3,154.3,0,0,1-8.956,13.439l55.529,18.042a10.636,10.636,0,0,1,6.676,13.126,11.157,11.157,0,0,1-13.092,7.354l-64.48-20.9A130.317,130.317,0,0,1,233.4,330.238l42.844,13.837a10.639,10.639,0,0,1,6.681,13.126,11.075,11.075,0,0,1-10.628,7.621A11.547,11.547,0,0,1,269.833,364.555Z" transform="translate(0 -0.437)"/></g></svg>