<svg xmlns="http://www.w3.org/2000/svg" width="422.199" height="73.495" viewBox="0 0 422.199 73.495"><defs><style>.a{fill:#fff;}</style></defs><g transform="translate(0 0.001)"><path class="a" d="M0,96.074V51.59H7.847V96.074Z" transform="translate(0 -37.673)"/><path class="a" d="M130.658,96.074h-7.668l-4.54-23.981-9.012,24.6h-2.853l-8.91-24.6L92.861,96.074H85.28L94.2,51.59h4.191l9.624,30.041,9.454-30.041h4.1Z" transform="translate(-58.923 -37.673)"/><path class="a" d="M451.36,122.885V115.81h16.053v7.075Z" transform="translate(-311.859 -82.045)"/><path class="a" d="M776.72,101.186q0-8.067,4.636-13.126A15.817,15.817,0,0,1,793.6,83c5.331,0,9.473,1.61,12.421,4.868s4.432,7.671,4.432,13.315-1.505,10.069-4.512,13.386-7.109,4.964-12.341,4.964q-8,0-12.449-5.013T776.72,101.186Zm8.478,0q0,11.6,8.4,11.6a7.254,7.254,0,0,0,6.11-3.013q2.256-3.017,2.256-8.589,0-11.436-8.366-11.436a7.281,7.281,0,0,0-6.135,3.01q-2.276,3.018-2.268,8.425Z" transform="translate(-536.66 -59.375)"/><path class="a" d="M958.013,120.553h-2.76l-8.9-19.969-8.932,19.969H934.66L922.35,87.39h8.036l6.466,19.434,7.977-19.434h2.782L955.853,107l7-19.61h7.492Z" transform="translate(-637.28 -62.409)"/><path class="a" d="M699.341,86.019V50H691.76V89.341c0,4.769,1.722,7.164,5.152,7.164a6.239,6.239,0,0,0,6-3.322Q699.335,92.033,699.341,86.019Z" transform="translate(-477.958 -36.575)"/><path class="a" d="M576.032,58.8a6.8,6.8,0,0,1,1.505-4.506,4.635,4.635,0,0,1,3.656-1.854,12.813,12.813,0,0,1,3.607.742V46.819a19.014,19.014,0,0,0-4.126-.529,10.9,10.9,0,0,0-8.506,3.656,14.721,14.721,0,0,0-3.53,9.544v8.345H563.91v7h4.729l-.043,17.58h7.578l.04-17.58h6.6v-7h-6.694C576.063,67.557,576.032,59.061,576.032,58.8Z" transform="translate(-389.623 -34.011)"/><path class="a" d="M295.5,74.477h6.441v9.547a10.892,10.892,0,0,1-7.3,2.42q-6.738,0-10.651-4.438t-3.9-11.844q0-7.789,3.984-12.428T294.942,53.1a14.141,14.141,0,0,1,5.254,1.27,17.765,17.765,0,0,1,4.345,2.42V47.85a20.42,20.42,0,0,0-9.4-2.136q-10.817,0-17.237,6.725t-6.41,17.5q0,10.759,5.872,17.308t15.9,6.562a33.38,33.38,0,0,0,9.272-1.351,21.538,21.538,0,0,0,7.619-3.789V67.377H295.5Z" transform="translate(-187.581 -33.612)"/><path class="a" d="M1188.506,13.563a34.533,34.533,0,0,0-26.812-6.5,35.543,35.543,0,0,0-17.19,7.795,35.792,35.792,0,0,0-10.975,15.3,36.387,36.387,0,0,0-1.793,18.977,36.189,36.189,0,0,0,14.412,23.835q11.995,9.065,27.476,6.537a34.55,34.55,0,0,0,23.424-14.566,35.285,35.285,0,0,0,6.181-27.244A35.853,35.853,0,0,0,1188.506,13.563Zm4.988,49.278A29.892,29.892,0,0,1,1173.043,75.8a31.529,31.529,0,0,1-21.415-3.916q-12.86-7.384-15.453-23.261-2.324-14.242,5.18-24.967a31.549,31.549,0,0,1,44.531-7.031,32.428,32.428,0,0,1,12.922,21.635Q1201.051,52,1193.494,62.841Z" transform="translate(-781.586 -6.56)"/><path class="a" d="M1208.7,82.353a15.948,15.948,0,1,0-16.35-23.767l-2.726-.927a11.077,11.077,0,1,0-1.79,3.656l2.809,1.49a15.951,15.951,0,0,0,10.969,19.11c-5,6.914-11.127,8.54-16.381,8.283a11.4,11.4,0,1,0-17.339-7.637c.025.164.062.309.093.479a13.342,13.342,0,0,0,8.944,10.768,29.185,29.185,0,0,0,3.174.729,26.981,26.981,0,0,0,11.63-1.008l.059.022,11.2,3.755a1.916,1.916,0,0,0,1.106-3.659l-7.393-2.473a22.61,22.61,0,0,0,3.842-3.106l11.126,3.734a1.916,1.916,0,0,0,1.107-3.659l-9.581-3.224a27.584,27.584,0,0,0,1.545-2.4A15.878,15.878,0,0,0,1208.7,82.353Z" transform="translate(-806.812 -32.167)"/></g></svg>