<svg xmlns="http://www.w3.org/2000/svg" xmlns:xlink="http://www.w3.org/1999/xlink" width="412.909" height="207.773" viewBox="0 0 412.909 207.773"><defs><style>.a{fill:none;}.b{fill:#f9af82;}.c{fill:#fd9657;}.d{clip-path:url(#a);}.e{fill:#415763;}.f{fill:#63b3db;}.g{fill:#fff;}.h{fill:#ec711e;}.i{fill:#f8d56b;}.j{mix-blend-mode:multiply;isolation:isolate;}.k{clip-path:url(#c);}.l{clip-path:url(#d);}.m{clip-path:url(#e);}</style><clipPath id="a"><rect class="a" width="412.909" height="207.773"/></clipPath><clipPath id="c"><rect class="b" width="18.075" height="23.46"/></clipPath><clipPath id="d"><rect class="b" width="18.076" height="23.46"/></clipPath><clipPath id="e"><rect class="c" width="37.812" height="11.894"/></clipPath></defs><g class="d"><g class="d"><path class="e" d="M854.237,402.17h-97.26V349.514a3.235,3.235,0,0,1,3.235-3.235H851a3.235,3.235,0,0,1,3.235,3.235Z" transform="translate(-597.75 -273.441)"/><path class="f" d="M847.7,620.642H745.692a3.64,3.64,0,0,0,3.64,3.64h94.727a3.64,3.64,0,0,0,3.64-3.64" transform="translate(-588.839 -490.093)"/><rect class="f" width="102.007" height="1.82" transform="translate(156.853 128.729)"/><rect class="g" width="22.805" height="0.91" transform="translate(196.454 128.729)"/><rect class="g" width="91.605" height="50.236" transform="translate(162.054 75.666)"/><rect class="f" width="86.242" height="4.479" transform="translate(164.736 78.347)"/><rect class="f" width="80.587" height="2.84" transform="translate(164.736 86.908)"/><rect class="f" width="49.31" height="2.84" transform="translate(164.736 97.999)"/><rect class="f" width="69.517" height="2.84" transform="translate(164.736 109.09)"/><rect class="f" width="73.23" height="2.84" transform="translate(164.736 120.181)"/><path class="h" d="M1046.107,477.055a19.452,19.452,0,1,0,19.456,19.449,19.452,19.452,0,0,0-19.456-19.449m.006,33.7a14.251,14.251,0,1,1,14.248-14.253,14.25,14.25,0,0,1-14.248,14.253" transform="translate(-810.123 -385.935)"/><path class="e" d="M1183.014,629.293l-.012.013a2,2,0,0,0-3.414-1.548l-3.607,3.608a2.005,2.005,0,0,0,1.834,3.38l15.64,15.4a5.118,5.118,0,0,0,5.117-5.119v-.1Z" transform="translate(-927.572 -504.473)"/><rect class="g" width="3.128" height="3.128" transform="translate(246.423 79.045)"/><path class="g" d="M793.956,378.192a1.311,1.311,0,1,1-1.311-1.311,1.311,1.311,0,0,1,1.311,1.311" transform="translate(-624.88 -297.606)"/><path class="g" d="M826.036,378.192a1.311,1.311,0,1,1-1.311-1.311,1.311,1.311,0,0,1,1.311,1.311" transform="translate(-650.212 -297.606)"/><path class="g" d="M858.116,378.192a1.311,1.311,0,1,1-1.311-1.311,1.311,1.311,0,0,1,1.311,1.311" transform="translate(-675.545 -297.606)"/><path class="e" d="M1175.963,28.8,1164.953,7.87a23.643,23.643,0,0,0,5.788,43.988Z" transform="translate(-909.926 -6.215)"/><path class="h" d="M1259.319,108.3l-4.788,23.015a23.573,23.573,0,0,0,17.516-5.442,22.339,22.339,0,0,0,8.348-17.131Z" transform="translate(-990.646 -85.52)"/><path class="f" d="M1241.609,19.952l18.025.208a21.121,21.121,0,0,0-2.158-10.173,18.681,18.681,0,0,0-25.23-7.836Z" transform="translate(-973.048 0)"/><path class="h" d="M1575.027,680.368a17.742,17.742,0,1,1-17.742-17.742,17.742,17.742,0,0,1,17.742,17.742" transform="translate(-1215.707 -523.245)"/><path class="g" d="M1581.915,689.757a15.241,15.241,0,1,1-15.241-15.241,15.241,15.241,0,0,1,15.241,15.241" transform="translate(-1225.097 -532.634)"/><path class="h" d="M1605.767,718.34v-1.96a7.674,7.674,0,0,1-3.408-.848.546.546,0,0,1-.243-.663l.224-.624a.551.551,0,0,1,.779-.3,6.677,6.677,0,0,0,3.021.742c1.763,0,2.956-1.019,2.956-2.435,0-1.365-.969-2.211-2.807-2.955-2.534-1-4.1-2.138-4.1-4.3a4.074,4.074,0,0,1,3.751-4v-1.962a.548.548,0,0,1,.549-.548h.443a.548.548,0,0,1,.548.548v1.863a6.866,6.866,0,0,1,2.791.635.545.545,0,0,1,.267.685l-.231.609a.546.546,0,0,1-.747.3,5.984,5.984,0,0,0-2.6-.568c-1.912,0-2.633,1.143-2.633,2.138,0,1.29.919,1.938,3.081,2.832,2.558,1.042,3.85,2.334,3.85,4.545a4.322,4.322,0,0,1-3.925,4.223v2.034a.548.548,0,0,1-.549.548h-.468a.548.548,0,0,1-.548-.548" transform="translate(-1265.092 -551.57)"/><path class="e" d="M914.24,713.386a8.418,8.418,0,0,0-8.582-8.528,8.7,8.7,0,0,0-8.493,7.836,8.524,8.524,0,0,0-17.021.692S878.956,725.755,897.13,734h.124c18.175-8.249,16.986-20.617,16.986-20.617" transform="translate(-694.997 -556.587)"/><rect class="h" width="9.482" height="14.645" transform="translate(254.743 193.128)"/><rect class="f" width="9.482" height="32.176" transform="translate(295.988 175.597)"/><rect class="f" width="9.482" height="20.489" transform="translate(268.491 187.284)"/><rect class="h" width="9.482" height="26.333" transform="translate(282.24 181.44)"/><rect class="e" width="3.413" height="4.511" transform="translate(347.005 65.72)"/><rect class="e" width="4.68" height="28.673" transform="translate(369.786 37.047)"/><path class="f" d="M1638.726,182.441c-11.813,0-12.49,6.315-12.49,8.021s.676,8.021,12.49,8.021c11.748,0,15.224,6.315,15.224,6.315V176.126s-3.477,6.315-15.224,6.315" transform="translate(-1284.164 -139.079)"/><path class="f" d="M1655.346,272.586v16.32a1.957,1.957,0,0,0,1.957,1.957h3.626a1.509,1.509,0,0,0,1.292-2.289l-.529-.876a9.081,9.081,0,0,1-1.305-4.691v-9.641c-1.137-2.939-2.849-3.041-5.041-.78" transform="translate(-1307.151 -214.006)"/><path class="e" d="M1626.235,213.8c0,1.706.677,8.021,12.49,8.021.871,0,1.7.035,2.478.1V205.675c-.782.064-1.606.1-2.478.1-11.813,0-12.49,6.315-12.49,8.021" transform="translate(-1284.163 -162.412)"/><path class="e" d="M739.675,63.692V59.717H711.617V55.274h-11V85.359h39.057Z" transform="translate(-553.246 -43.647)"/><path class="h" d="M739.675,116.96H700.618l3.5-21.667h39.057Z" transform="translate(-553.246 -75.248)"/><path class="i" d="M174.634,618.711l.016,23.46,17.56-10.909a.94.94,0,0,0,0-1.661Z" transform="translate(-137.9 -488.568)"/><path class="i" d="M286.6,618.614l.016,23.46-17.575-10.89a.94.94,0,0,1,0-1.661Z" transform="translate(-212.055 -488.491)"/><g class="j" transform="translate(36.734 130.143)"><g class="k"><path class="b" d="M174.634,618.711l.016,23.46,17.56-10.909a.94.94,0,0,0,0-1.661Z" transform="translate(-174.634 -618.711)"/></g></g><g class="j" transform="translate(56.486 130.123)"><g class="l"><path class="b" d="M286.6,618.614l.016,23.46-17.575-10.89a.94.94,0,0,1,0-1.661Z" transform="translate(-268.541 -618.614)"/></g></g><path class="i" d="M192.737,673.941l-18.026,11.647,37.812-.02L194.481,673.94a1.663,1.663,0,0,0-1.745,0" transform="translate(-137.961 -531.985)"/><g class="j" transform="translate(36.75 141.708)"><g class="m"><path class="c" d="M192.737,673.941l-18.026,11.647,37.812-.02L194.481,673.94a1.663,1.663,0,0,0-1.745,0" transform="translate(-174.711 -673.693)"/></g></g><path class="h" d="M174.634,618.635l18.916,13.836,18.9-13.856Z" transform="translate(-137.9 -488.491)"/><path class="f" d="M973.05,254.177H946.9a.526.526,0,1,1,0-1.052H973.05a.526.526,0,1,1,0,1.052" transform="translate(-747.305 -199.881)"/><path class="f" d="M888.348,254.177h-8.685a.526.526,0,1,1,0-1.052h8.685a.526.526,0,1,1,0,1.052" transform="translate(-694.214 -199.881)"/><path class="f" d="M1005.3,288.5H979.143a.526.526,0,0,1,0-1.052H1005.3a.526.526,0,1,1,0,1.052" transform="translate(-772.769 -226.988)"/><path class="f" d="M1138.11,288.5h-8.685a.526.526,0,1,1,0-1.052h8.685a.526.526,0,1,1,0,1.052" transform="translate(-891.44 -226.988)"/><path class="f" d="M150.749,314.224H124.595a.526.526,0,1,1,0-1.052h26.154a.526.526,0,1,1,0,1.052" transform="translate(-97.972 -247.298)"/><path class="f" d="M66.046,314.224H57.361a.526.526,0,1,1,0-1.052h8.685a.526.526,0,1,1,0,1.052" transform="translate(-44.88 -247.298)"/><path class="f" d="M183,348.552H156.842a.526.526,0,1,1,0-1.052H183a.526.526,0,1,1,0,1.052" transform="translate(-123.436 -274.405)"/><path class="f" d="M315.808,348.552h-8.685a.526.526,0,0,1,0-1.052h8.685a.526.526,0,1,1,0,1.052" transform="translate(-242.106 -274.405)"/><path class="f" d="M896.985,892.646H870.832a.526.526,0,0,1,0-1.052h26.154a.526.526,0,0,1,0,1.052" transform="translate(-687.241 -704.051)"/><path class="f" d="M812.282,892.646H803.6a.526.526,0,0,1,0-1.052h8.685a.526.526,0,0,1,0,1.052" transform="translate(-634.148 -704.051)"/><path class="f" d="M929.232,926.973H903.078a.526.526,0,1,1,0-1.052h26.154a.526.526,0,1,1,0,1.052" transform="translate(-712.704 -731.158)"/><path class="f" d="M1062.044,926.973h-8.685a.526.526,0,0,1,0-1.052h8.685a.526.526,0,1,1,0,1.052" transform="translate(-831.374 -731.158)"/><path class="f" d="M676.84,272.719a5.24,5.24,0,0,1-.952-.087.526.526,0,1,1,.191-1.034,4.2,4.2,0,0,0,.761.07,4.12,4.12,0,0,0,1.617-.327.526.526,0,0,1,.411.968,5.167,5.167,0,0,1-2.028.411m-3.25-1.316a.523.523,0,0,1-.366-.148,5.175,5.175,0,0,1-1.462-2.618.526.526,0,0,1,1.028-.225,4.127,4.127,0,0,0,1.166,2.088.526.526,0,0,1-.366.9m7.145-.776a.526.526,0,0,1-.438-.817,4.154,4.154,0,0,0,.308-4.027.526.526,0,1,1,.955-.442,5.206,5.206,0,0,1-.386,5.051.526.526,0,0,1-.439.235m-8.254-4.265a.526.526,0,0,1-.49-.716,5.194,5.194,0,0,1,1.842-2.366.526.526,0,1,1,.609.857,4.145,4.145,0,0,0-1.47,1.888.526.526,0,0,1-.491.336m6.814-2.291a.523.523,0,0,1-.276-.079,4.153,4.153,0,0,0-2.311-.615.526.526,0,1,1-.033-1.051,5.227,5.227,0,0,1,2.9.772.526.526,0,0,1-.277.973" transform="translate(-530.45 -207.145)"/><path class="f" d="M1355.733,713.723a.562.562,0,0,1-.068,0,6.88,6.88,0,0,1-2.767-.982.526.526,0,0,1,.554-.894,5.84,5.84,0,0,0,2.347.833.526.526,0,0,1-.066,1.047m2.7-.225a.526.526,0,0,1-.153-1.029,5.862,5.862,0,0,0,2.175-1.214.526.526,0,1,1,.695.79,6.908,6.908,0,0,1-2.563,1.431.53.53,0,0,1-.154.023m-7.216-2.563a.526.526,0,0,1-.437-.232,6.886,6.886,0,0,1-1.089-2.726.526.526,0,1,1,1.037-.174,5.835,5.835,0,0,0,.924,2.313.526.526,0,0,1-.436.82m11.2-.94a.526.526,0,0,1-.479-.743,5.931,5.931,0,0,0,.2-4.379.526.526,0,0,1,.993-.346,6.984,6.984,0,0,1-.231,5.159.526.526,0,0,1-.479.309m-12.086-4.29a.527.527,0,0,1-.509-.66,6.893,6.893,0,0,1,1.33-2.617.526.526,0,1,1,.816.663,5.847,5.847,0,0,0-1.128,2.221.526.526,0,0,1-.508.393m10.886-2.8a.525.525,0,0,1-.381-.163,5.95,5.95,0,0,0-2.058-1.405.526.526,0,1,1,.4-.974,7.021,7.021,0,0,1,2.425,1.655.526.526,0,0,1-.381.888m-7.542-1.323a.526.526,0,0,1-.236-1,6.894,6.894,0,0,1,2.844-.729.526.526,0,0,1,.04,1.051,5.845,5.845,0,0,0-2.413.618.523.523,0,0,1-.235.056" transform="translate(-1065.786 -552.648)"/><path class="f" d="M588.179,358.069h-.036a3.871,3.871,0,0,1-2.731-1.416.526.526,0,0,1,.816-.664,2.817,2.817,0,0,0,1.987,1.031.526.526,0,0,1-.035,1.05m2.5-.889a.526.526,0,0,1-.359-.91,2.78,2.78,0,0,0,.892-2.053.526.526,0,1,1,1.052,0,3.875,3.875,0,0,1-1.226,2.822.523.523,0,0,1-.359.142m-5.579-2.894a.517.517,0,0,1-.072,0,.526.526,0,0,1-.45-.592,3.871,3.871,0,0,1,1.6-2.628.526.526,0,0,1,.606.859,2.817,2.817,0,0,0-1.165,1.911.526.526,0,0,1-.52.455m6.155-1.272a.525.525,0,0,1-.45-.253,2.818,2.818,0,0,0-1.827-1.294.526.526,0,1,1,.214-1.03,3.874,3.874,0,0,1,2.512,1.778.526.526,0,0,1-.449.8" transform="translate(-461.614 -276.715)"/><path class="f" d="M209.295,546.615c-.174,0-.349-.008-.521-.025a.526.526,0,0,1,.1-1.047,4.389,4.389,0,0,0,2.371-.435.526.526,0,0,1,.467.942,5.391,5.391,0,0,1-2.416.564m-2.984-1.008a.525.525,0,0,1-.319-.108,5.453,5.453,0,0,1-1.788-2.393.526.526,0,0,1,.983-.374,4.4,4.4,0,0,0,1.443,1.931.526.526,0,0,1-.32.944m7.164-1.316a.526.526,0,0,1-.446-.8,4.382,4.382,0,0,0,.66-2.318.444.444,0,0,0-.064-.751,4.377,4.377,0,0,0-1.047-2.17.526.526,0,0,1,.785-.7,5.426,5.426,0,0,1,1.3,2.691.623.623,0,0,0,.079.929,5.432,5.432,0,0,1-.819,2.873.525.525,0,0,1-.447.248m-9.009-3.534a.536.536,0,0,1-.1-.01.526.526,0,0,1-.416-.616,5.431,5.431,0,0,1,1.353-2.664.526.526,0,0,1,.771.715,4.382,4.382,0,0,0-1.092,2.148.526.526,0,0,1-.516.426m6.228-3.779a.524.524,0,0,1-.149-.022,4.449,4.449,0,0,0-2.411-.025.526.526,0,1,1-.277-1.015,5.508,5.508,0,0,1,2.986.031.526.526,0,0,1-.149,1.03" transform="translate(-161.041 -423.038)"/><path class="f" d="M405.029,811.371c-.173,0-.348-.008-.521-.024a.526.526,0,0,1,.1-1.047,4.383,4.383,0,0,0,2.371-.435.526.526,0,1,1,.467.942,5.39,5.39,0,0,1-2.416.564m-2.984-1.008a.524.524,0,0,1-.319-.108,5.452,5.452,0,0,1-1.788-2.393.526.526,0,0,1,.983-.374,4.4,4.4,0,0,0,1.443,1.931.526.526,0,0,1-.32.944m7.164-1.317a.526.526,0,0,1-.446-.8,4.383,4.383,0,0,0,.66-2.318.444.444,0,0,0-.064-.751,4.375,4.375,0,0,0-1.047-2.17.526.526,0,0,1,.786-.7A5.428,5.428,0,0,1,410.4,805a.624.624,0,0,0,.079.929,5.432,5.432,0,0,1-.819,2.873.525.525,0,0,1-.447.248m-9.009-3.534a.526.526,0,0,1-.517-.626,5.433,5.433,0,0,1,1.353-2.664.526.526,0,0,1,.771.715,4.38,4.38,0,0,0-1.092,2.148.526.526,0,0,1-.516.426m6.227-3.779a.519.519,0,0,1-.149-.022,4.788,4.788,0,0,0-1.253-.18,4.393,4.393,0,0,0-1.158.155.526.526,0,0,1-.278-1.014,5.441,5.441,0,0,1,1.435-.192h.005a5.442,5.442,0,0,1,1.546.223.526.526,0,0,1-.149,1.03" transform="translate(-315.604 -632.102)"/><path class="f" d="M1646.033,533.331a.57.57,0,0,1-.067,0,6.888,6.888,0,0,1-2.767-.982.526.526,0,1,1,.554-.894,5.835,5.835,0,0,0,2.347.833.526.526,0,0,1-.066,1.048m2.7-.226a.526.526,0,0,1-.153-1.029,5.858,5.858,0,0,0,2.175-1.214.526.526,0,1,1,.694.79,6.9,6.9,0,0,1-2.563,1.431.531.531,0,0,1-.153.023m-7.216-2.563a.526.526,0,0,1-.436-.232,6.885,6.885,0,0,1-1.089-2.727.526.526,0,0,1,1.037-.174,5.84,5.84,0,0,0,.924,2.313.526.526,0,0,1-.435.82m11.2-.94a.526.526,0,0,1-.479-.743,5.93,5.93,0,0,0,.2-4.38.526.526,0,0,1,.994-.346,6.984,6.984,0,0,1-.232,5.16.526.526,0,0,1-.479.309m-12.086-4.29a.527.527,0,0,1-.509-.659,6.9,6.9,0,0,1,1.33-2.617.526.526,0,1,1,.816.663,5.856,5.856,0,0,0-1.129,2.221.526.526,0,0,1-.508.393m10.886-2.8a.524.524,0,0,1-.381-.163,5.957,5.957,0,0,0-2.058-1.4.526.526,0,1,1,.4-.974,7.023,7.023,0,0,1,2.424,1.654.526.526,0,0,1-.381.888m-7.542-1.322a.526.526,0,0,1-.236-1,6.887,6.887,0,0,1,2.844-.729.526.526,0,0,1,.04,1.051,5.85,5.85,0,0,0-2.412.618.522.522,0,0,1-.235.056" transform="translate(-1295.023 -410.201)"/><path class="f" d="M961.117,55.628a.526.526,0,0,1-.372-.9l.883-.883a.526.526,0,1,1,.744.744l-.883.883a.524.524,0,0,1-.372.154" transform="translate(-758.535 -42.399)"/><path class="f" d="M946,55.628a.524.524,0,0,1-.372-.154l-.883-.883a.526.526,0,0,1,.744-.744l.883.883a.526.526,0,0,1-.372.9" transform="translate(-745.903 -42.399)"/><path class="f" d="M945.12,71.626a.526.526,0,0,1-.372-.9l.883-.883a.526.526,0,1,1,.744.744l-.883.883a.524.524,0,0,1-.372.154" transform="translate(-745.903 -55.032)"/><path class="f" d="M962,71.626a.524.524,0,0,1-.372-.154l-.883-.883a.526.526,0,0,1,.744-.744l.883.883a.526.526,0,0,1-.372.9" transform="translate(-758.536 -55.032)"/><path class="f" d="M303.2,805.606a.526.526,0,0,1-.372-.9l.883-.883a.526.526,0,0,1,.744.744l-.883.883a.524.524,0,0,1-.372.154" transform="translate(-239.009 -634.622)"/><path class="f" d="M288.087,805.606a.524.524,0,0,1-.372-.154l-.883-.883a.526.526,0,0,1,.744-.744l.883.883a.526.526,0,0,1-.372.9" transform="translate(-226.377 -634.622)"/><path class="f" d="M287.2,821.6a.526.526,0,0,1-.372-.9l.883-.883a.526.526,0,1,1,.744.744l-.883.883a.524.524,0,0,1-.372.154" transform="translate(-226.376 -647.255)"/><path class="f" d="M304.085,821.6a.524.524,0,0,1-.372-.154l-.883-.883a.526.526,0,0,1,.744-.744l.883.883a.526.526,0,0,1-.372.9" transform="translate(-239.01 -647.255)"/><path class="f" d="M417.367,239.447a.526.526,0,0,1-.372-.9l.883-.883a.526.526,0,0,1,.744.744l-.883.883a.525.525,0,0,1-.372.154" transform="translate(-329.16 -187.553)"/><path class="f" d="M402.252,239.447a.524.524,0,0,1-.372-.154L401,238.41a.526.526,0,0,1,.744-.744l.883.883a.526.526,0,0,1-.372.9" transform="translate(-316.528 -187.553)"/><path class="f" d="M401.369,255.445a.526.526,0,0,1-.372-.9l.883-.883a.526.526,0,0,1,.744.744l-.883.883a.524.524,0,0,1-.372.154" transform="translate(-316.527 -200.185)"/><path class="f" d="M418.25,255.445a.524.524,0,0,1-.372-.154l-.883-.883a.526.526,0,0,1,.744-.744l.883.883a.526.526,0,0,1-.372.9" transform="translate(-329.16 -200.185)"/><path class="f" d="M1105.279,856.061a.526.526,0,0,1-.372-.9l.883-.883a.526.526,0,0,1,.744.744l-.883.883a.525.525,0,0,1-.372.154" transform="translate(-872.373 -674.464)"/><path class="f" d="M1090.164,856.061a.524.524,0,0,1-.372-.154l-.883-.883a.526.526,0,0,1,.744-.744l.884.883a.526.526,0,0,1-.372.9" transform="translate(-859.74 -674.464)"/><path class="f" d="M1089.281,872.059a.526.526,0,0,1-.372-.9l.883-.883a.526.526,0,0,1,.744.744l-.884.883a.524.524,0,0,1-.372.154" transform="translate(-859.74 -687.097)"/><path class="f" d="M1106.162,872.059a.525.525,0,0,1-.372-.154l-.883-.883a.526.526,0,0,1,.744-.744l.884.883a.526.526,0,0,1-.372.9" transform="translate(-872.373 -687.097)"/><path class="f" d="M1799.633,691.675a.526.526,0,0,1-.372-.9l.883-.883a.526.526,0,0,1,.743.744l-.883.883a.525.525,0,0,1-.372.154" transform="translate(-1420.672 -544.656)"/><path class="f" d="M1784.518,691.675a.524.524,0,0,1-.372-.154l-.883-.883a.526.526,0,0,1,.744-.744l.883.883a.526.526,0,0,1-.372.9" transform="translate(-1408.04 -544.656)"/><path class="f" d="M1783.635,707.673a.526.526,0,0,1-.372-.9l.884-.883a.526.526,0,0,1,.744.744l-.883.883a.524.524,0,0,1-.372.154" transform="translate(-1408.04 -557.289)"/><path class="f" d="M1800.516,707.673a.525.525,0,0,1-.372-.154l-.883-.883a.526.526,0,0,1,.744-.744l.883.883a.526.526,0,0,1-.372.9" transform="translate(-1420.672 -557.289)"/><path class="f" d="M1033.39,140.921a.526.526,0,0,1-.526-.526V138.67a.526.526,0,0,1,1.052,0v1.725a.526.526,0,0,1-.526.526" transform="translate(-815.606 -109.086)"/><path class="f" d="M1015.391,158.919h-1.725a.526.526,0,1,1,0-1.052h1.725a.526.526,0,1,1,0,1.052" transform="translate(-800.03 -124.66)"/><path class="f" d="M1033.39,172.166a.526.526,0,0,1-.526-.526v-1.725a.526.526,0,0,1,1.052,0v1.725a.526.526,0,0,1-.526.526" transform="translate(-815.606 -133.759)"/><path class="f" d="M1046.637,158.919h-1.725a.526.526,0,1,1,0-1.052h1.725a.526.526,0,0,1,0,1.052" transform="translate(-824.704 -124.66)"/><path class="f" d="M666.113,428.39a.526.526,0,0,1-.526-.526v-1.512a.526.526,0,0,1,1.052,0v1.512a.526.526,0,0,1-.526.526" transform="translate(-525.584 -336.255)"/><path class="f" d="M650.333,444.169h-1.512a.526.526,0,1,1,0-1.052h1.512a.526.526,0,0,1,0,1.052" transform="translate(-511.929 -349.909)"/><path class="f" d="M666.113,455.783a.526.526,0,0,1-.526-.526v-1.512a.526.526,0,0,1,1.052,0v1.512a.526.526,0,0,1-.526.526" transform="translate(-525.584 -357.886)"/><path class="f" d="M677.727,444.169h-1.512a.526.526,0,1,1,0-1.052h1.512a.526.526,0,1,1,0,1.052" transform="translate(-533.561 -349.909)"/><path class="f" d="M582.126,505.786a.525.525,0,0,1-.372-.154l-1.052-1.052a.526.526,0,1,1,.744-.744l1.052,1.052a.526.526,0,0,1-.372.9" transform="translate(-458.432 -397.734)"/><path class="f" d="M581.075,524.845a.526.526,0,0,1-.372-.9l1.052-1.052a.526.526,0,1,1,.743.744l-1.052,1.052a.524.524,0,0,1-.372.154" transform="translate(-458.433 -412.785)"/><path class="f" d="M601.187,524.845a.524.524,0,0,1-.372-.154l-1.053-1.052a.526.526,0,0,1,.744-.744l1.052,1.052a.526.526,0,0,1-.372.9" transform="translate(-473.484 -412.785)"/><path class="f" d="M600.135,505.785a.526.526,0,0,1-.372-.9l1.052-1.052a.526.526,0,1,1,.744.744l-1.052,1.052a.524.524,0,0,1-.372.154" transform="translate(-473.484 -397.734)"/><path class="f" d="M498.873,699.156a.526.526,0,0,1-.526-.526V696.9a.526.526,0,1,1,1.052,0v1.725a.526.526,0,0,1-.526.526" transform="translate(-393.522 -549.899)"/><path class="f" d="M480.875,717.154H479.15a.526.526,0,1,1,0-1.052h1.725a.526.526,0,1,1,0,1.052" transform="translate(-377.948 -565.473)"/><path class="f" d="M498.873,730.4a.526.526,0,0,1-.526-.526V728.15a.526.526,0,0,1,1.052,0v1.725a.526.526,0,0,1-.526.526" transform="translate(-393.522 -574.571)"/><path class="f" d="M512.12,717.154h-1.725a.526.526,0,1,1,0-1.052h1.725a.526.526,0,1,1,0,1.052" transform="translate(-402.62 -565.473)"/><path class="f" d="M302.915,446a.526.526,0,0,1-.526-.526v-1.516a.526.526,0,0,1,1.052,0v1.516a.526.526,0,0,1-.526.526" transform="translate(-238.783 -350.156)"/><path class="f" d="M287.094,461.817h-1.516a.526.526,0,0,1,0-1.052h1.516a.526.526,0,0,1,0,1.052" transform="translate(-225.093 -363.845)"/><path class="f" d="M302.915,473.461a.526.526,0,0,1-.526-.526v-1.516a.526.526,0,0,1,1.052,0v1.516a.526.526,0,0,1-.526.526" transform="translate(-238.783 -371.843)"/><path class="f" d="M314.559,461.817h-1.516a.526.526,0,0,1,0-1.052h1.516a.526.526,0,1,1,0,1.052" transform="translate(-246.78 -363.845)"/><path class="f" d="M791.485,797.954a.526.526,0,0,1-.526-.526V795.7a.526.526,0,0,1,1.052,0v1.725a.526.526,0,0,1-.526.526" transform="translate(-624.584 -627.915)"/><path class="f" d="M773.487,815.951h-1.725a.526.526,0,0,1,0-1.052h1.725a.526.526,0,0,1,0,1.052" transform="translate(-609.01 -643.488)"/><path class="f" d="M791.485,829.2a.526.526,0,0,1-.526-.526v-1.725a.526.526,0,0,1,1.052,0v1.725a.526.526,0,0,1-.526.526" transform="translate(-624.584 -652.588)"/><path class="f" d="M804.732,815.951h-1.725a.526.526,0,0,1,0-1.052h1.725a.526.526,0,0,1,0,1.052" transform="translate(-633.683 -643.488)"/><path class="f" d="M1140.968,705.126a.526.526,0,0,1-.526-.526v-1.725a.526.526,0,0,1,1.052,0V704.6a.526.526,0,0,1-.526.526" transform="translate(-900.555 -554.613)"/><path class="f" d="M1122.97,723.124h-1.725a.526.526,0,0,1,0-1.052h1.725a.526.526,0,0,1,0,1.052" transform="translate(-884.981 -570.187)"/><path class="f" d="M1140.968,736.371a.526.526,0,0,1-.526-.526V734.12a.526.526,0,0,1,1.052,0v1.725a.526.526,0,0,1-.526.526" transform="translate(-900.555 -579.286)"/><path class="f" d="M1154.215,723.124h-1.725a.526.526,0,0,1,0-1.052h1.725a.526.526,0,0,1,0,1.052" transform="translate(-909.653 -570.187)"/><path class="f" d="M1559.376,887.544a.526.526,0,0,1-.526-.526v-1.725a.526.526,0,0,1,1.052,0v1.725a.526.526,0,0,1-.526.526" transform="translate(-1230.952 -698.66)"/><path class="f" d="M1541.378,905.542h-1.725a.526.526,0,0,1,0-1.052h1.725a.526.526,0,0,1,0,1.052" transform="translate(-1215.378 -714.234)"/><path class="f" d="M1559.376,918.789a.526.526,0,0,1-.526-.526v-1.725a.526.526,0,0,1,1.052,0v1.725a.526.526,0,0,1-.526.526" transform="translate(-1230.952 -723.333)"/><path class="f" d="M1572.623,905.542H1570.9a.526.526,0,0,1,0-1.052h1.725a.526.526,0,0,1,0,1.052" transform="translate(-1240.051 -714.234)"/><path class="f" d="M1221.268,788.049a.526.526,0,0,1-.526-.526v-1.113a.526.526,0,0,1,1.052,0v1.113a.526.526,0,0,1-.526.526" transform="translate(-963.964 -620.578)"/><path class="f" d="M1209.659,799.659h-1.113a.526.526,0,1,1,0-1.052h1.113a.526.526,0,1,1,0,1.052" transform="translate(-953.918 -630.623)"/><path class="f" d="M1221.268,808.2a.526.526,0,0,1-.526-.526v-1.113a.526.526,0,0,1,1.052,0v1.113a.526.526,0,0,1-.526.526" transform="translate(-963.964 -636.493)"/><path class="f" d="M1229.814,799.659H1228.7a.526.526,0,1,1,0-1.052h1.113a.526.526,0,0,1,0,1.052" transform="translate(-969.834 -630.623)"/><path class="f" d="M1536.957,127.064a.526.526,0,0,1-.526-.526v-1.725a.526.526,0,0,1,1.052,0v1.725a.526.526,0,0,1-.526.526" transform="translate(-1213.249 -98.144)"/><path class="f" d="M1518.958,145.063h-1.725a.526.526,0,1,1,0-1.052h1.725a.526.526,0,1,1,0,1.052" transform="translate(-1197.674 -113.719)"/><path class="f" d="M1536.957,158.31a.526.526,0,0,1-.526-.526v-1.725a.526.526,0,0,1,1.052,0v1.725a.526.526,0,0,1-.526.526" transform="translate(-1213.249 -122.817)"/><path class="f" d="M1550.2,145.063h-1.725a.526.526,0,1,1,0-1.052h1.725a.526.526,0,1,1,0,1.052" transform="translate(-1222.347 -113.719)"/><path class="f" d="M1550.333,294.064a.526.526,0,0,1-.526-.526v-2.1a.526.526,0,0,1,1.052,0v2.1a.526.526,0,0,1-.526.526" transform="translate(-1223.812 -229.717)"/><path class="f" d="M1528.38,316.016h-2.1a.526.526,0,0,1,0-1.052h2.1a.526.526,0,0,1,0,1.052" transform="translate(-1204.815 -248.713)"/><path class="f" d="M1550.333,332.174a.526.526,0,0,1-.526-.526v-2.1a.526.526,0,0,1,1.052,0v2.1a.526.526,0,0,1-.526.526" transform="translate(-1223.812 -259.81)"/><path class="f" d="M1566.49,316.016h-2.1a.526.526,0,0,1,0-1.052h2.1a.526.526,0,0,1,0,1.052" transform="translate(-1234.909 -248.713)"/><path class="f" d="M1848.275,368.367a.526.526,0,0,1-.526-.526v-2.1a.526.526,0,1,1,1.052,0v2.1a.526.526,0,0,1-.526.526" transform="translate(-1459.083 -288.39)"/><path class="f" d="M1826.323,390.319h-2.1a.526.526,0,1,1,0-1.052h2.1a.526.526,0,1,1,0,1.052" transform="translate(-1440.087 -307.386)"/><path class="f" d="M1848.275,406.476a.526.526,0,0,1-.526-.526v-2.1a.526.526,0,1,1,1.052,0v2.1a.526.526,0,0,1-.526.526" transform="translate(-1459.083 -318.483)"/><path class="f" d="M1864.433,390.319h-2.1a.526.526,0,1,1,0-1.052h2.1a.526.526,0,1,1,0,1.052" transform="translate(-1470.181 -307.386)"/><path class="f" d="M1452.227,232.921a.526.526,0,0,1-.372-.9l1.22-1.22a.526.526,0,1,1,.744.744l-1.22,1.22a.524.524,0,0,1-.372.154" transform="translate(-1146.342 -182.133)"/><path class="f" d="M1431.353,232.921a.524.524,0,0,1-.372-.154l-1.22-1.22a.526.526,0,1,1,.744-.744l1.22,1.22a.526.526,0,0,1-.372.9" transform="translate(-1128.896 -182.133)"/><path class="f" d="M1430.134,255.015a.526.526,0,0,1-.372-.9l1.22-1.22a.526.526,0,1,1,.744.744l-1.22,1.22a.524.524,0,0,1-.372.154" transform="translate(-1128.896 -199.58)"/><path class="f" d="M1453.447,255.015a.524.524,0,0,1-.372-.154l-1.22-1.22a.526.526,0,0,1,.744-.744l1.22,1.22a.526.526,0,0,1-.372.9" transform="translate(-1146.342 -199.58)"/><path class="f" d="M1099.38,54.145a.526.526,0,0,1-.526-.526V52.594a.526.526,0,1,1,1.052,0v1.025a.526.526,0,0,1-.526.526" transform="translate(-867.715 -41.116)"/><path class="f" d="M1088.682,64.844h-1.025a.526.526,0,1,1,0-1.052h1.025a.526.526,0,0,1,0,1.052" transform="translate(-858.458 -50.374)"/><path class="f" d="M1099.38,72.717a.526.526,0,0,1-.526-.526V71.166a.526.526,0,1,1,1.052,0v1.025a.526.526,0,0,1-.526.526" transform="translate(-867.715 -55.781)"/><path class="f" d="M1107.253,64.844h-1.025a.526.526,0,1,1,0-1.052h1.025a.526.526,0,1,1,0,1.052" transform="translate(-873.122 -50.374)"/><rect class="e" width="37.314" height="27.329" transform="translate(375.595 104.12)"/><path class="g" d="M1843.826,534.39v-16.53c0-.535.418-.9.794-.686l15.987,8.951-15.987,8.951c-.376.211-.794-.15-.794-.686" transform="translate(-1455.985 -408.341)"/><path class="f" d="M1399.823,614.553h-22.436a.526.526,0,0,1,0-1.052h22.436a.526.526,0,1,1,0,1.052" transform="translate(-1087.245 -484.454)"/><path class="f" d="M1327.162,614.553h-7.45a.526.526,0,0,1,0-1.052h7.45a.526.526,0,0,1,0,1.052" transform="translate(-1041.701 -484.454)"/><path class="f" d="M1399.823,539.893h-22.436a.526.526,0,0,1,0-1.052h22.436a.526.526,0,1,1,0,1.052" transform="translate(-1087.245 -425.498)"/><path class="f" d="M1327.162,539.893h-7.45a.526.526,0,0,1,0-1.052h7.45a.526.526,0,0,1,0,1.052" transform="translate(-1041.701 -425.498)"/><path class="f" d="M1427.487,576.288h-22.436a.526.526,0,1,1,0-1.052h22.436a.526.526,0,0,1,0,1.052" transform="translate(-1109.089 -454.238)"/><path class="f" d="M1541.418,576.288h-7.45a.526.526,0,1,1,0-1.052h7.45a.526.526,0,1,1,0,1.052" transform="translate(-1210.889 -454.238)"/><path class="f" d="M501.533,573.3H479.1a.526.526,0,1,1,0-1.052h22.436a.526.526,0,0,1,0,1.052" transform="translate(-377.906 -451.876)"/><path class="f" d="M615.464,573.3h-7.451a.526.526,0,0,1,0-1.052h7.451a.526.526,0,0,1,0,1.052" transform="translate(-479.706 -451.876)"/><path class="f" d="M501.533,647.958H479.1a.526.526,0,1,1,0-1.052h22.436a.526.526,0,0,1,0,1.052" transform="translate(-377.906 -510.832)"/><path class="f" d="M615.464,647.958h-7.451a.526.526,0,0,1,0-1.052h7.451a.526.526,0,0,1,0,1.052" transform="translate(-479.706 -510.832)"/><path class="f" d="M473.87,611.563H451.434a.526.526,0,0,1,0-1.052H473.87a.526.526,0,0,1,0,1.052" transform="translate(-356.061 -482.093)"/><path class="f" d="M401.208,611.563h-7.45a.526.526,0,0,1,0-1.052h7.45a.526.526,0,0,1,0,1.052" transform="translate(-310.517 -482.093)"/><path class="e" d="M536.511,808.284a19.716,19.716,0,1,1,19.716-19.715,19.738,19.738,0,0,1-19.716,19.715" transform="translate(-408.089 -607.128)"/><path class="f" d="M549.655,817.927a16.214,16.214,0,1,1,16.214-16.214,16.233,16.233,0,0,1-16.214,16.214" transform="translate(-421.234 -620.273)"/><path class="e" d="M561.981,826.969a12.931,12.931,0,1,1,12.931-12.931,12.946,12.946,0,0,1-12.931,12.931" transform="translate(-433.56 -632.598)"/><path class="f" d="M574.847,836.408a9.5,9.5,0,1,1,9.5-9.5,9.515,9.515,0,0,1-9.5,9.5" transform="translate(-446.426 -645.463)"/><path class="h" d="M597.673,845.063a4.667,4.667,0,1,1-4.667-4.667,4.667,4.667,0,0,1,4.667,4.667" transform="translate(-464.585 -663.623)"/><path class="g" d="M604.442,805.295a.526.526,0,0,1-.372-.9l15.972-15.978a.526.526,0,0,1,.744.744l-15.972,15.978a.524.524,0,0,1-.372.154" transform="translate(-476.885 -622.457)"/><path class="g" d="M671.969,788.289h-3.426a.526.526,0,0,1-.526-.526v-3.425a.526.526,0,0,1,1.052,0v2.9h2.9a.526.526,0,0,1,0,1.052" transform="translate(-527.503 -618.94)"/><path class="g" d="M607.576,853.51h-3.134a.526.526,0,0,1-.526-.526V849.85a.526.526,0,0,1,1.052,0v2.609h2.609a.526.526,0,0,1,0,1.052" transform="translate(-476.885 -670.672)"/><path class="g" d="M662.124,794.179h-4.862a.526.526,0,0,1-.526-.526v-4.862a.526.526,0,1,1,1.052,0v4.336h4.336a.526.526,0,1,1,0,1.052" transform="translate(-518.594 -622.457)"/><path class="f" d="M456.165,289.49s4.672-11.68,4.46-22.935c-.175-9.306-6.158-16.725-8.225-19.015a.935.935,0,0,0-1.388,0c-2.067,2.29-8.05,9.709-8.225,19.015-.212,11.255,4.46,22.935,4.46,22.935Z" transform="translate(-349.643 -195.227)"/><path class="e" d="M509.6,396.423l4.9,8.116-3.6,12.616-4.463-4.759v-5.1a87.912,87.912,0,0,0,3.168-10.877" transform="translate(-399.908 -313.037)"/><path class="e" d="M430.565,396.423l-4.9,8.116,3.6,12.616,4.463-4.759v-5.1a87.918,87.918,0,0,1-3.168-10.877" transform="translate(-336.13 -313.037)"/><path class="e" d="M469.591,254.976a35.992,35.992,0,0,0-5.111-7.432.935.935,0,0,0-1.39,0,35.976,35.976,0,0,0-5.012,7.242c3.763,3.229,7.6,3.168,11.513.187" transform="translate(-361.723 -195.231)"/><path class="g" d="M473.033,315.795a4.427,4.427,0,1,1-4.427-4.427,4.427,4.427,0,0,1,4.427,4.427" transform="translate(-366.541 -245.873)"/><rect class="f" width="8.923" height="5.097" transform="translate(97.603 94.263)"/><path class="e" d="M480.725,417.015H478.91l-.533-20.775h2.881Z" transform="translate(-377.752 -312.892)"/><path class="f" d="M688.738,685.177h0a2.751,2.751,0,0,1-1.743-.66.526.526,0,0,1,.659-.82,1.707,1.707,0,0,0,1.085.428h0a1.849,1.849,0,0,0,.879-.247.526.526,0,0,1,.5.924,2.883,2.883,0,0,1-1.38.375m3.052-2.22a.526.526,0,0,1-.434-.822,13.4,13.4,0,0,0,1.239-2.318.526.526,0,0,1,.968.41,14.47,14.47,0,0,1-1.338,2.5.526.526,0,0,1-.435.229M685.8,682.4a.526.526,0,0,1-.5-.365,3.77,3.77,0,0,1-.187-1.155,3.513,3.513,0,0,1,.571-1.907.526.526,0,1,1,.888.564,2.479,2.479,0,0,0-.407,1.344,2.718,2.718,0,0,0,.137.833.527.527,0,0,1-.5.687m15.53-3.494a.525.525,0,0,1-.259-.068,14.973,14.973,0,0,0-2.4-1.093.526.526,0,0,1,.35-.992,16.069,16.069,0,0,1,2.569,1.17.526.526,0,0,1-.26.983m-13.146-.878a.526.526,0,0,1-.242-.993,10.547,10.547,0,0,1,2.715-.931.526.526,0,1,1,.213,1.03,9.523,9.523,0,0,0-2.444.835.524.524,0,0,1-.241.059m5.775-.076a.518.518,0,0,1-.132-.017.526.526,0,0,1-.377-.641q.055-.214.1-.427h-.075a.526.526,0,0,1,0-1.052h.289c.064-.384.113-.761.145-1.129a.526.526,0,1,1,1.047.092c-.031.354-.076.717-.135,1.085.49.039.98.1,1.466.182a.526.526,0,1,1-.176,1.037c-.494-.084-.992-.143-1.489-.178q-.072.325-.157.653a.526.526,0,0,1-.509.394m.365-5.416a.526.526,0,0,1-.514-.417,2.514,2.514,0,0,0-1.159-1.858.526.526,0,0,1,.476-.938,3.492,3.492,0,0,1,1.712,2.577.527.527,0,0,1-.515.635" transform="translate(-540.999 -528.493)"/><path class="f" d="M1284.04,291.777a.526.526,0,0,1-.274-.975,7.5,7.5,0,0,0,1.912-1.678.526.526,0,1,1,.816.664,8.551,8.551,0,0,1-2.18,1.912.524.524,0,0,1-.273.077m3.389-4.162a.526.526,0,0,1-.525-.559,5.917,5.917,0,0,1-1.783-.306.526.526,0,1,1,.34-1,4.987,4.987,0,0,0,1.726.25,5.462,5.462,0,0,0,.11-1.076,4.7,4.7,0,0,0-.024-.474.526.526,0,1,1,1.046-.107,5.7,5.7,0,0,1,.029.58,6.433,6.433,0,0,1-.094,1.084.526.526,0,0,1-.194.976l-.046.006q-.043.136-.092.272a.527.527,0,0,1-.5.349m3.179-1.387a.526.526,0,0,1-.213-1.007,6.955,6.955,0,0,0,2.1-1.405.526.526,0,1,1,.74.747,8,8,0,0,1-2.415,1.621.525.525,0,0,1-.213.045m-7.488-1.037a.526.526,0,0,1-.426-.217,4.331,4.331,0,0,1-.861-2.5,3.165,3.165,0,0,1,.031-.449.526.526,0,1,1,1.041.148,2.179,2.179,0,0,0-.02.3,3.319,3.319,0,0,0,.661,1.884.526.526,0,0,1-.425.834m3.588-2.715a.525.525,0,0,1-.38-.162,3.971,3.971,0,0,0-1.607-.989,2.825,2.825,0,0,0-.471-.121.526.526,0,0,1,.165-1.039,3.862,3.862,0,0,1,.648.165,5.013,5.013,0,0,1,2.025,1.256.526.526,0,0,1-.38.89m7.657-.024a.526.526,0,0,1-.487-.723,7.568,7.568,0,0,0,.526-2.49.526.526,0,1,1,1.05.049q-.011.231-.032.457a.527.527,0,0,1,.24-.015,5.193,5.193,0,0,0,.863.074h0a4.362,4.362,0,0,0,1.553-.277.526.526,0,0,1,.373.983,5.407,5.407,0,0,1-1.926.345h0a6.238,6.238,0,0,1-1.039-.089.522.522,0,0,1-.2-.081,8.124,8.124,0,0,1-.43,1.437.526.526,0,0,1-.488.329m-1.324-2.664a.525.525,0,0,1-.28-.081,7.541,7.541,0,0,1-2.139-1.993.526.526,0,0,1,.859-.607,6.476,6.476,0,0,0,1.84,1.71.526.526,0,0,1-.28.971m1.632-2.713a.526.526,0,0,1-.512-.406,7.983,7.983,0,0,0-.944-2.372.526.526,0,1,1,.893-.556,9.044,9.044,0,0,1,1.075,2.688.527.527,0,0,1-.512.646m-4.473-1.684h-.023a.526.526,0,0,1-.5-.548,3.52,3.52,0,0,1,.646-1.885,2.03,2.03,0,0,1,1.048-.828.526.526,0,1,1,.31,1,1.025,1.025,0,0,0-.5.425,2.481,2.481,0,0,0-.457,1.329.526.526,0,0,1-.525.5" transform="translate(-1012.205 -214.869)"/><path class="f" d="M492.707,132.122a.525.525,0,0,1-.4-.181,5.911,5.911,0,0,1-1.041-1.7.526.526,0,0,1,.978-.387,4.87,4.87,0,0,0,.857,1.4.526.526,0,0,1-.4.871m-1.313-4.238-.046,0a.526.526,0,0,1-.478-.57q.024-.275.069-.55a9.562,9.562,0,0,1-1-.2.526.526,0,0,1,.266-1.018,8.5,8.5,0,0,0,.967.192,8.818,8.818,0,0,1,.47-1.221.526.526,0,1,1,.951.448,7.782,7.782,0,0,0-.345.86c.078,0,.148.008.234,0s.19,0,.284,0a.526.526,0,1,1,.029,1.051c-.1,0-.211.012-.315,0q-.25,0-.5-.011c-.032.181-.055.362-.071.54a.526.526,0,0,1-.523.48m4.089-1.42a.526.526,0,0,1-.139-1.033,9.836,9.836,0,0,0,2.389-.994.526.526,0,1,1,.538.9,10.911,10.911,0,0,1-2.648,1.1.526.526,0,0,1-.14.019m-7.889-1.007a.524.524,0,0,1-.3-.092,8.385,8.385,0,0,1-2.069-2.033.526.526,0,0,1,.854-.615,7.332,7.332,0,0,0,1.809,1.78.526.526,0,0,1-.3.96m12.295-1.953a.526.526,0,0,1-.495-.7.926.926,0,0,0,.059-.312,1.015,1.015,0,0,0-.585-.812,3.124,3.124,0,0,0-.5-.255.526.526,0,1,1,.391-.976,4.169,4.169,0,0,1,.666.34,1.888,1.888,0,0,1,.957,2.371.527.527,0,0,1-.495.348m-6.23-.49a.526.526,0,0,1-.379-.89,6.722,6.722,0,0,1,2.432-1.662.526.526,0,0,1,.369.985,5.666,5.666,0,0,0-2.042,1.405.524.524,0,0,1-.379.161m-9.271-1.878a.526.526,0,0,1-.491-.338,10.77,10.77,0,0,1-.56-1.991,9.168,9.168,0,0,1-1.159-.385.526.526,0,1,1,.4-.975q.363.147.726.257a.526.526,0,0,1,.984.214s0,.009,0,.013a6.723,6.723,0,0,0,.768.077.526.526,0,1,1-.044,1.051q-.278-.012-.557-.044a10.117,10.117,0,0,0,.428,1.407.526.526,0,0,1-.491.714m3.3-2.584a.526.526,0,0,1-.23-1,3.945,3.945,0,0,0,1.727-1.636.526.526,0,1,1,.914.519,4.977,4.977,0,0,1-2.182,2.063.525.525,0,0,1-.23.053m-7.662-1.474a.524.524,0,0,1-.329-.116,9.7,9.7,0,0,1-1.959-2.112.526.526,0,0,1,.87-.591,8.649,8.649,0,0,0,1.747,1.883.526.526,0,0,1-.329.936m4.086-1.281a.526.526,0,0,1-.491-.714,5.575,5.575,0,0,1,1.765-2.4.526.526,0,1,1,.648.828,4.524,4.524,0,0,0-1.431,1.951.526.526,0,0,1-.491.338m6.152-1.706a.526.526,0,0,1-.516-.428,1.353,1.353,0,0,0-1.462-1h-.053a.526.526,0,0,1-.021-1.052h.073a2.335,2.335,0,0,1,2.5,1.858.526.526,0,0,1-.517.624" transform="translate(-377.178 -88.134)"/><path class="e" d="M27.549,419.45c-.61,1.082-12.827,17.242-12.827,17.242S2.505,420.532,1.9,419.45l-.028-.038h.005a14.72,14.72,0,1,1,27.571-7.175,14.643,14.643,0,0,1-1.873,7.175h.005ZM14.722,401.882a9.9,9.9,0,1,0,9.9,9.9,9.9,9.9,0,0,0-9.9-9.9" transform="translate(0 -313.899)"/><path class="e" d="M1356.975,379.071a20.786,20.786,0,0,0-20.786,20.786h41.572a20.786,20.786,0,0,0-20.786-20.786" transform="translate(-1055.127 -299.335)"/><path class="g" d="M1343.958,404.183a19.216,19.216,0,0,1,38.3,0Z" transform="translate(-1061.262 -305.231)"/><path class="e" d="M1418.6,457.109a4.371,4.371,0,0,0-4.371,4.371h8.742a4.371,4.371,0,0,0-4.371-4.371" transform="translate(-1116.75 -360.958)"/><path class="e" d="M1431.689,428.425a.884.884,0,0,1-.762-1.329l5.7-9.76a.883.883,0,0,1,1.526.891l-5.7,9.76a.883.883,0,0,1-.764.438" transform="translate(-1129.842 -329.205)"/><path class="e" d="M1448.771,418.22a.884.884,0,0,1-.853-.655l-.711-2.655-2.655.711a.884.884,0,1,1-.458-1.707l3.508-.94a.883.883,0,0,1,1.082.625l.94,3.508a.884.884,0,0,1-.854,1.112" transform="translate(-1139.818 -326.083)"/><path class="f" d="M270.7,184.018a.631.631,0,0,1-.329-1.17l8.276-5.041a.631.631,0,0,1,.656,1.078l-8.276,5.041a.63.63,0,0,1-.328.092" transform="translate(-213.264 -140.333)"/><path class="f" d="M278.93,231.228a.628.628,0,0,1-.327-.092l-8.221-5a.631.631,0,1,1,.655-1.078l8.22,5a.631.631,0,0,1-.328,1.17" transform="translate(-213.269 -177.648)"/><path class="h" d="M224.536,196.064a5.4,5.4,0,1,0,5.4-5.4,5.4,5.4,0,0,0-5.4,5.4" transform="translate(-177.306 -150.559)"/><path class="e" d="M310.124,163.254a2.579,2.579,0,1,0,2.579-2.579,2.579,2.579,0,0,0-2.579,2.579" transform="translate(-244.891 -126.878)"/><path class="e" d="M310.124,248.807a2.579,2.579,0,1,0,2.579-2.579,2.579,2.579,0,0,0-2.579,2.579" transform="translate(-244.891 -194.435)"/></g></g></svg>