<svg xmlns="http://www.w3.org/2000/svg" xmlns:xlink="http://www.w3.org/1999/xlink" width="88.094" height="101.57" viewBox="0 0 88.094 101.57"><defs><style>.a,.g,.h,.i,.l{fill:none;}.b{fill:#ffbb6b;}.c{fill:#ffcd92;}.d{fill:#ffaf50;}.e{clip-path:url(#a);}.f{fill:#ee8e13;}.g,.h{stroke:#ffaf50;}.g,.l{stroke-linejoin:bevel;}.h,.i,.l{stroke-width:0.3px;}.i{stroke:#ee8e12;}.j{fill:#fff;}.k{fill:#323232;}.l{stroke:#323232;stroke-linecap:round;}.m{fill:#e7e7e7;}</style><clipPath id="a"><rect class="a" width="88.094" height="101.57" transform="translate(0 0)"/></clipPath></defs><g transform="translate(0 0)"><path class="b" d="M32.709,28.356h3.214V24.073H32.546v4.283Z"/><path class="c" d="M25.788,28.356H29V25.8H25.625v2.556Z"/><path class="d" d="M46.369,28.355h3.625V19.181H46.158v9.174Z"/><path class="d" d="M39.448,28.355h3.625v-6.24H39.237v6.24Z"/><g class="e"><path class="f" d="M53.29,28.356h3.619c-.01-.661.006-1.325.006-1.986V10.116H53.086c0,.141-.007.282-.007.421V28.356Z"/><path class="d" d="M38.668,14.552c-2.011,1.044-4.069,2-6.173,2.842a53.206,53.206,0,0,1-5.969,2.015l-.344.089q-.085-.337-.169-.676a50.017,50.017,0,0,0,5.443-1.771c2.076-.8,4.111-1.711,6.1-2.711q3.054-1.534,5.955-3.355a61.5,61.5,0,0,0,5.464-3.854,40.927,40.927,0,0,0,4.518-4.122c.16-.172.319-.346.475-.522a.352.352,0,0,0-.246-.594H50.9V1.2h4.97V6.167h-.7V3.1c0-.288.041-1.773-.164-1.542C53.642,3.094,51.7,5.8,50.109,7.107a58.726,58.726,0,0,1-5.43,3.952c-1.945,1.262-3.954,2.425-6.011,3.493M54.477,3.991V6.515a.354.354,0,0,0,.348.348h1.393a.354.354,0,0,0,.348-.348V.848A.354.354,0,0,0,56.218.5H50.551a.319.319,0,0,0-.235.093L50.3.6,50.3.611A.324.324,0,0,0,50.2.848V2.241a.353.353,0,0,0,.348.348h2.38a40.035,40.035,0,0,1-3.79,3.518,57.642,57.642,0,0,1-5.3,3.839q-2.847,1.839-5.864,3.4c-1.96,1.016-3.965,1.946-6.015,2.765a52.039,52.039,0,0,1-5.782,1.952q-.342.092-.685.178l-.254.353.011.075q.168.675.337,1.351a.355.355,0,0,0,.429.243,50.851,50.851,0,0,0,5.937-1.91c2.14-.826,4.236-1.765,6.283-2.8q3.13-1.578,6.1-3.451a62.529,62.529,0,0,0,5.6-3.966,42.462,42.462,0,0,0,4.535-4.143"/><path class="g" d="M38.668,14.552c-2.011,1.044-4.069,2-6.173,2.842a53.206,53.206,0,0,1-5.969,2.015l-.344.089q-.085-.337-.169-.676a50.017,50.017,0,0,0,5.443-1.771c2.076-.8,4.111-1.711,6.1-2.711q3.054-1.534,5.955-3.355a61.5,61.5,0,0,0,5.464-3.854,40.927,40.927,0,0,0,4.518-4.122c.16-.172.319-.346.475-.522a.352.352,0,0,0-.246-.594H50.9V1.2h4.97V6.167h-.7V3.1c0-.288.041-1.773-.164-1.542C53.642,3.094,51.7,5.8,50.109,7.107a58.726,58.726,0,0,1-5.43,3.952c-1.945,1.262-3.954,2.425-6.011,3.493M54.477,3.991V6.515a.354.354,0,0,0,.348.348h1.393a.354.354,0,0,0,.348-.348V.848A.354.354,0,0,0,56.218.5H50.551a.319.319,0,0,0-.235.093L50.3.6,50.3.611A.324.324,0,0,0,50.2.848V2.241a.353.353,0,0,0,.348.348h2.38a40.035,40.035,0,0,1-3.79,3.518,57.642,57.642,0,0,1-5.3,3.839q-2.847,1.839-5.864,3.4c-1.96,1.016-3.965,1.946-6.015,2.765a52.039,52.039,0,0,1-5.782,1.952q-.342.092-.685.178l-.254.353.011.075q.168.675.337,1.351a.355.355,0,0,0,.429.243,50.851,50.851,0,0,0,5.937-1.91c2.14-.826,4.236-1.765,6.283-2.8q3.13-1.578,6.1-3.451a62.529,62.529,0,0,0,5.6-3.966,42.462,42.462,0,0,0,4.535-4.143"/><path class="f" d="M60.614,9.5a.348.348,0,1,0,.185.671l.883-.26.128-.038a.348.348,0,1,0-.185-.671l-.883.26-.128.038"/><path class="d" d="M25.9,46.256,22.928,42.71,19.317,38.4l-3.11-3.711c-.5-.6-.981-1.247-1.522-1.816-.008-.008-.014-.018-.022-.026a.492.492,0,0,0-.692,0,.5.5,0,0,0,0,.692l1.244,1.485,2.972,3.546L21.8,42.88l3.11,3.711c.5.6.981,1.247,1.522,1.816.008.008.015.018.022.026a.492.492,0,0,0,.692,0,.5.5,0,0,0,0-.692L25.9,46.256"/><path class="h" d="M25.9,46.256,22.928,42.71,19.317,38.4l-3.11-3.711c-.5-.6-.981-1.247-1.522-1.816-.008-.008-.014-.018-.022-.026a.492.492,0,0,0-.692,0,.5.5,0,0,0,0,.692l1.244,1.485,2.972,3.546L21.8,42.88l3.11,3.711c.5.6.981,1.247,1.522,1.816.008.008.015.018.022.026a.492.492,0,0,0,.692,0,.5.5,0,0,0,0-.692L25.9,46.256"/><path class="d" d="M20.123,52.278l-1.539-.884-3.718-2.135-4.478-2.572L6.516,44.463c-.628-.36-1.247-.746-1.888-1.084L4.6,43.363a.49.49,0,0,0-.495.846l1.539.884,3.718,2.135L13.841,49.8l3.873,2.224c.627.36,1.247.746,1.887,1.084l.028.016a.49.49,0,0,0,.494-.846"/><path class="h" d="M20.123,52.278l-1.539-.884-3.718-2.135-4.478-2.572L6.516,44.463c-.628-.36-1.247-.746-1.888-1.084L4.6,43.363a.49.49,0,0,0-.495.846l1.539.884,3.718,2.135L13.841,49.8l3.873,2.224c.627.36,1.247.746,1.887,1.084l.028.016a.49.49,0,0,0,.494-.846"/><path class="d" d="M17.325,58.372l-1.652-.211-3.994-.512-4.81-.616L2.706,56.5l-1.381-.177c-.217-.028-.439-.074-.657-.084l-.029,0a.493.493,0,0,0-.489.49.5.5,0,0,0,.489.49l1.653.211,3.993.511,4.811.617,4.162.533,1.382.177c.216.027.438.073.656.084a.284.284,0,0,1,.029,0,.491.491,0,0,0,.49-.489.5.5,0,0,0-.49-.49"/><path class="h" d="M17.325,58.372l-1.652-.211-3.994-.512-4.81-.616L2.706,56.5l-1.381-.177c-.217-.028-.439-.074-.657-.084l-.029,0a.493.493,0,0,0-.489.49.5.5,0,0,0,.489.49l1.653.211,3.993.511,4.811.617,4.162.533,1.382.177c.216.027.438.073.656.084a.284.284,0,0,1,.029,0,.491.491,0,0,0,.49-.489.5.5,0,0,0-.49-.49"/><path class="d" d="M71.549,39.544l3.441-3.289c.556-.531,1.141-1.043,1.672-1.6l.024-.023c.456-.436-.237-1.128-.693-.692l-1.37,1.309L71.333,38.4,67.352,42.2,63.911,45.49c-.555.531-1.141,1.043-1.672,1.6-.007.008-.016.015-.023.022-.457.437.236,1.128.692.693l1.37-1.31,3.29-3.144,3.981-3.805"/><path class="h" d="M71.549,39.544l3.441-3.289c.556-.531,1.141-1.043,1.672-1.6l.024-.023c.456-.436-.237-1.128-.693-.692l-1.37,1.309L71.333,38.4,67.352,42.2,63.911,45.49c-.555.531-1.141,1.043-1.672,1.6-.007.008-.016.015-.023.022-.457.437.236,1.128.692.693l1.37-1.31,3.29-3.144,3.981-3.805"/><path class="d" d="M77.482,48.782l3.969-1.713,1.317-.568c.207-.089.427-.166.627-.271.009-.005.019-.008.028-.012a.493.493,0,0,0,.176-.67.5.5,0,0,0-.67-.176l-1.589.686-3.791,1.636L72.94,49.683,68.972,51.4l-1.317.568c-.207.089-.428.166-.627.271-.009.005-.019.008-.028.012a.493.493,0,0,0-.176.67.5.5,0,0,0,.67.176l1.588-.686,3.791-1.636Z"/><path class="h" d="M77.482,48.782l3.969-1.713,1.317-.568c.207-.089.427-.166.627-.271.009-.005.019-.008.028-.012a.493.493,0,0,0,.176-.67.5.5,0,0,0-.67-.176l-1.589.686-3.791,1.636L72.94,49.683,68.972,51.4l-1.317.568c-.207.089-.428.166-.627.271-.009.005-.019.008-.028.012a.493.493,0,0,0-.176.67.5.5,0,0,0,.67.176l1.588-.686,3.791-1.636Z"/><path class="d" d="M85.625,57.177l-4.317.077-6.877.122-1.574.028a.49.49,0,0,0,0,.98l4.317-.077,6.877-.123,1.574-.028a.49.49,0,0,0,0-.979"/><path class="h" d="M85.625,57.177l-4.317.077-6.877.122-1.574.028a.49.49,0,0,0,0,.98l4.317-.077,6.877-.123,1.574-.028a.49.49,0,0,0,0-.979"/><path class="d" d="M77.546,33.9a.49.49,0,0,0,0-.979.49.49,0,0,0,0,.979"/><path class="h" d="M77.546,33.9a.49.49,0,0,0,0-.979.49.49,0,0,0,0,.979"/><path class="f" d="M87.471,57.218a.49.49,0,0,0,0,.979.49.49,0,0,0,0-.979"/><path class="i" d="M87.471,57.218a.49.49,0,0,0,0,.979.49.49,0,0,0,0-.979"/><path class="d" d="M87.471,57.218a.49.49,0,0,0,0,.979.49.49,0,0,0,0-.979"/><path class="h" d="M87.471,57.218a.49.49,0,0,0,0,.979.49.49,0,0,0,0-.979"/><path class="j" d="M46.181,61.459l.615.927,1.26,1.9c.067.1.134.2.2.3.018.026.056.069.083.109l.023-.021q1.26-1.283,2.519-2.564c.443-.45,1.135.243.693.693l-1.4,1.423c-.406.413-.795.861-1.227,1.248a.937.937,0,0,1-1.423-.222c-.115-.164-.223-.335-.334-.5q-.143-.216-.287-.432a12.107,12.107,0,0,1-.615,1.533c.248,1.077.369,2.193.52,3.285q.308,2.22.571,4.446c.081.681.164,1.363.232,2.047q.234-.633.466-1.266l2.12-5.757c.161-.437.328-.872.483-1.312a9.629,9.629,0,0,0,.264-1.156l1.049-4.807a.491.491,0,0,1-.659-.18c-.335-.746-.678-1.488-1.02-2.229a20.275,20.275,0,0,1-4.134,2.536"/><path class="j" d="M46.91,42.319h0l0,0-.006,0"/><path class="j" d="M48.255,64.782a.2.2,0,0,1,.033-.037c-.027,0-.048.012-.033.037"/><path class="j" d="M48.369,64.758v0c.007.047.024-.012,0,0"/><path class="j" d="M41.8,42.191l.045.019a.1.1,0,0,0-.045-.019"/><path class="j" d="M44.448,53.31l-.034-.017c-.011-.005.012.008.034.017"/><path class="j" d="M44.463,53.316l-.014-.007h0l.015.008"/><path class="j" d="M44.725,51.442l.051.006a.125.125,0,0,0-.051-.006"/><path class="j" d="M45.308,52.858c.01-.023.02-.055,0,0"/><path class="j" d="M44.445,51.485a.1.1,0,0,0-.034.018l.039-.02Z"/><path class="j" d="M44.745,53.35l-.028,0a.1.1,0,0,0,.028,0"/><path class="j" d="M40.869,65.118c-.022,0-.038.012-.028.037,0,0,.022-.028.025-.033Z"/><path class="j" d="M44.463,51.477l-.013.007,0,0,.01,0"/><path class="j" d="M39.164,69.215,41.513,75.3c.08.208.161.416.241.625h.3q.1-1.4.219-2.79c.123-1.434.259-2.869.44-4.3a17.824,17.824,0,0,1,.471-2.821,10.96,10.96,0,0,1-.589-1.553l-.7.92a2.02,2.02,0,0,1-.568.609.929.929,0,0,1-1.167-.279l-2.542-2.988q.357,2.044.712,4.09a13.08,13.08,0,0,0,.839,2.4"/><path class="j" d="M37.3,60.926q.062.355.124.711a.484.484,0,0,1,.6.067l1.343,1.578,1.495,1.758.03.033c.121-.182.273-.352.405-.525l1.83-2.394.261-.6c-.227-.109-.453-.222-.678-.337-1.215-.623-2.41-1.291-3.593-1.975a.517.517,0,0,1-.23.063.148.148,0,0,1-.021,0q-.128.83-.254,1.66a.492.492,0,0,1-.6.342.5.5,0,0,1-.342-.6c.019-.128.039-.256.058-.384l-.49.35a.365.365,0,0,1,.032.093Z"/><path class="j" d="M43.944,52.557c.005.029.01.059.017.088.012.052.027.1.044.156,0,0,.012.032.021.054l.022.048c.027.051.058.1.088.149l.016.023c.022.018.041.046.061.066s.034.035.052.052l.04.033.033.022c.02.013.041.025.062.037l.014.008a.272.272,0,0,1,.036.017l.012,0,.1.029a.435.435,0,0,0,.052.011l-.059-.007c.037.02.125,0,.164,0l.034,0,.031-.008.069-.02.06-.025.049-.028c.021-.012.041-.026.061-.038l0,0,.052-.047c.032-.03.061-.063.09-.1-.012.009.064-.092.077-.113s.036-.069.055-.1l0-.006c.018-.053.037-.1.051-.158s.023-.1.032-.15c0-.016,0-.038,0-.049,0-.036,0-.072,0-.108s-.007-.1-.007-.15V52.24l0-.009c-.014-.067-.028-.133-.048-.2-.008-.027-.018-.053-.028-.08l-.019-.042a2.074,2.074,0,0,0-.108-.182l-.005-.01-.01-.01-.05-.055c-.026-.026-.054-.049-.08-.075l0,0a1.2,1.2,0,0,1-.145-.084l-.039-.017-.069-.02-.065-.013h-.036c-.031,0-.061,0-.092,0a.1.1,0,0,1-.022,0c-.041.01-.092.031-.119.04s-.044.024-.042.021l-.011.006c-.032.017-.061.038-.092.056l0,0c-.033.041-.08.073-.117.112l-.027.033-.034.046a1.489,1.489,0,0,0-.078.133c-.009.017-.017.034-.025.051s-.021.059-.03.089c-.016.052-.03.1-.041.159l-.01.072c0,.023,0,.048,0,.048a1.57,1.57,0,0,0,0,.194c0,.018,0,.035,0,.052"/><path class="j" d="M39.577,42.889a1.95,1.95,0,0,1,1.251-1.637,1.922,1.922,0,0,1,1.967.445.49.49,0,0,1-.693.693l-.076-.071c-.05-.03-.1-.063-.147-.09l-.031-.019-.011,0a.5.5,0,0,0-.05-.018,1.4,1.4,0,0,0-.168-.047l-.066-.011h-.012a1.46,1.46,0,0,0-.175,0h-.015l-.062.009c-.058.012-.113.03-.169.047l-.007,0h0l-.061.031c-.03.016-.059.034-.088.052s-.1.058-.034.021-.02.017-.031.026l-.063.058c-.02.02-.04.041-.059.062l-.011.012c.011-.01-.031.039-.039.051s-.031.047-.046.072-.029.049-.042.075l-.01.021c-.009.048-.039.1-.051.148s-.036.213-.019.072a.5.5,0,0,1-.49.489.491.491,0,0,1-.49-.489M43.323,51.2a1.614,1.614,0,0,1,1.893-.635,1.95,1.95,0,0,1,1.161,1.83,1.906,1.906,0,0,1-1.364,1.894,1.667,1.667,0,0,1-1.811-.9,2.147,2.147,0,0,1,.121-2.194m.439-5.3a4.024,4.024,0,0,0,.185-.636c.01-.05.018-.1.026-.152,0,0,.012-.087.012-.092.011-.109.017-.22.019-.33s0-.221-.009-.331c0-.047-.008-.1-.012-.142l-.005-.045-.009-.059a3.94,3.94,0,0,0-.164-.641.49.49,0,0,1,.944-.26,4.376,4.376,0,0,1-.043,2.948.5.5,0,0,1-.6.342.492.492,0,0,1-.342-.6m1.45,1.864a.491.491,0,0,1,.067.248l-.018.13a.369.369,0,0,1-.087.166.357.357,0,0,1-.138.126.353.353,0,0,1-.182.058.366.366,0,0,1-.158,0,1.382,1.382,0,0,0-.249-.007h0a.5.5,0,0,1-.26,0l-.117-.05a.492.492,0,0,1-.176-.175l-.049-.117a.549.549,0,0,1,.049-.378.377.377,0,0,1,.126-.137.369.369,0,0,1,.167-.088.382.382,0,0,1,.067-.015,1.92,1.92,0,0,1,.2-.024,1.205,1.205,0,0,1,.159,0c.1.007.207.021.309.037a.5.5,0,0,1,.216.126l.077.1m.945-6.079a1.92,1.92,0,0,1,1.966-.445,1.949,1.949,0,0,1,1.251,1.636c.032.273-.25.479-.49.49a.5.5,0,0,1-.489-.49c.015.136,0,.027,0,0s-.013-.056-.02-.083-.016-.055-.026-.082c0-.009-.035-.076-.023-.055l-.008-.016q-.024-.045-.051-.09c-.012-.019-.024-.038-.037-.057l-.029-.042.024.031c-.008-.037-.089-.1-.116-.125l-.064-.058a.149.149,0,0,1-.029-.028c-.036-.024-.091-.049-.111-.06l-.066-.032,0,0c-.056-.017-.111-.035-.169-.047l-.051-.01h-.044a1.444,1.444,0,0,0-.174,0H47.36l-.044.013a1.4,1.4,0,0,0-.168.049.06.06,0,0,1-.038.019l-.053.024c-.018.01-.092.067-.128.086a.031.031,0,0,1-.016.007l-.064.06a.489.489,0,0,1-.692-.692M47.3,45.106a.49.49,0,0,1,0-.979.49.49,0,0,1,0,.979m-5.727,0a.49.49,0,0,1,0-.979.49.49,0,0,1,0,.979m-.815,11.567a6.006,6.006,0,0,0,3.936,1.179.492.492,0,0,1,.489.489.5.5,0,0,1-.489.49,6.489,6.489,0,0,1-2.617-.366,7.426,7.426,0,0,1-2.533-1.536q-.057.678-.116,1.358,1.219.7,2.453,1.38c.48.262.963.52,1.45.768.21.106.42.211.632.311.1.048.2.094.3.139l.129.057h0l.035.015a.671.671,0,0,1,.259.2l.287-.01a.6.6,0,0,1,.348-.369,17.355,17.355,0,0,0,2.5-1.315,20.893,20.893,0,0,0,1.89-1.307.45.45,0,0,1-.011-.064c-.008-.092-.016-.184-.023-.275l-.078-.936a9.626,9.626,0,0,1-1.835,1.391.49.49,0,0,1-.494-.846,7.494,7.494,0,0,0,2.5-2.264,9.646,9.646,0,0,0,1.3-3.613.494.494,0,0,1,.6-.342.459.459,0,0,1,.186.1,1.888,1.888,0,0,0,.893-.629,4.233,4.233,0,0,0,.891-3.072,4.142,4.142,0,0,0-.129-.485,1.033,1.033,0,0,0-.27-.366.643.643,0,0,0-.174-.043,1.774,1.774,0,0,0-.392.031.551.551,0,0,1-.451-.1.494.494,0,0,1-.274-.307l-.6-1.8a2.964,2.964,0,0,1-1.128-1.4,15.433,15.433,0,0,1-.605-1.818c-.083-.283-.17-.565-.278-.84,0-.009-.022-.055-.032-.079l-.026-.058c-.026-.056-.052-.111-.08-.166a2.953,2.953,0,0,0-.191-.314l-.006-.009L49,39.841c-.016-.018-.031-.036-.048-.054-.04-.044-.083-.084-.126-.124l0,0c-.021-.015-.043-.031-.065-.045s-.061-.034-.091-.05a1.262,1.262,0,0,1-.151-.051c-.024-.006-.048-.01-.073-.015h0c-.062,0-.123-.007-.184-.005-.037,0-.073,0-.109.006h-.012l-.017,0a12.173,12.173,0,0,1-1.378.053.5.5,0,0,1-.472-.359,3.2,3.2,0,0,0-.667-1.134,1.723,1.723,0,0,0-.746-.467,2.012,2.012,0,0,0-.23-.052h-.008l-.092-.007a2.33,2.33,0,0,0-.364.008c-.006,0-.129.021-.16.028q-.1.023-.195.051a2.774,2.774,0,0,0-.362.137,3.6,3.6,0,0,0-1.042.666,5.286,5.286,0,0,0-.661.913,8.658,8.658,0,0,1-2.859,3,.4.4,0,0,1-.022.047,6.325,6.325,0,0,0-.587,1.585,5.735,5.735,0,0,0-.121.77,2.347,2.347,0,0,1-.09.9,2.119,2.119,0,0,1-.633.489l-.538.369a.443.443,0,0,1-.51-.018h-.005a1.028,1.028,0,0,0-.661.281l-.1.171a2.029,2.029,0,0,0-.1.361,3.769,3.769,0,0,0,.045,1.533,3.7,3.7,0,0,0,1.719,2.5.46.46,0,0,1,.117-.051.494.494,0,0,1,.6.342,12.626,12.626,0,0,0,.416,1.592,6.58,6.58,0,0,0,2.346,3.465"/><path class="j" d="M40.95,65.132a.1.1,0,0,1,.018.025c.006-.008,0-.017-.018-.025"/><path class="j" d="M46.915,42.316l.013-.005c.02-.015.039-.04-.013.005"/><path class="j" d="M47.144,42.185l0,0h0l0,0-.007,0"/><path class="j" d="M47.6,42.115l.05.007a.1.1,0,0,0-.05-.007"/><path class="j" d="M47.11,42.2l.034-.018c-.037.014-.041.019-.034.018"/><path class="k" d="M38.316,53.208a12.889,12.889,0,0,1-.416-1.592.485.485,0,0,0-.719-.291,3.707,3.707,0,0,1-1.719-2.5,3.787,3.787,0,0,1-.045-1.533,2.032,2.032,0,0,1,.1-.361l.1-.171a1.03,1.03,0,0,1,.661-.281h.005a.443.443,0,0,0,.51.018l.538-.369a2.119,2.119,0,0,0,.633-.489,2.349,2.349,0,0,0,.09-.9,5.71,5.71,0,0,1,.121-.77,6.289,6.289,0,0,1,.588-1.585c.008-.015.014-.031.021-.047a8.67,8.67,0,0,0,2.86-3,5.228,5.228,0,0,1,.66-.913,3.576,3.576,0,0,1,1.042-.666,2.774,2.774,0,0,1,.362-.137c.065-.02.129-.037.195-.051.031-.007.154-.025.16-.028a2.33,2.33,0,0,1,.364-.008l.092.007h.008a2.012,2.012,0,0,1,.23.052,1.732,1.732,0,0,1,.747.467,3.215,3.215,0,0,1,.666,1.134.506.506,0,0,0,.472.359,11.944,11.944,0,0,0,1.378-.054l.017,0h.012l.109-.006c.062,0,.122,0,.184.005h0l.074.015a1.212,1.212,0,0,0,.15.051c.031.016.061.032.091.05s.044.029.065.045l0,0c.043.04.086.08.127.124l.047.054.008.009.006.009a2.953,2.953,0,0,1,.191.314c.028.055.054.11.081.165l.025.059c.01.024.029.07.032.079.108.275.195.557.279.84a15.351,15.351,0,0,0,.6,1.817,2.964,2.964,0,0,0,1.129,1.4l.6,1.8a.491.491,0,0,0,.274.307.548.548,0,0,0,.45.1,1.774,1.774,0,0,1,.392-.031.65.65,0,0,1,.175.043,1.045,1.045,0,0,1,.27.366,4.348,4.348,0,0,1,.128.485,4.172,4.172,0,0,1,.02.613,4.276,4.276,0,0,1-.911,2.459,1.888,1.888,0,0,1-.893.629.466.466,0,0,0-.186-.1.5.5,0,0,0-.6.342,9.645,9.645,0,0,1-1.3,3.614,7.494,7.494,0,0,1-2.5,2.264.49.49,0,0,0,.495.845,9.646,9.646,0,0,0,1.834-1.39l.078.936c.008.091.015.183.023.275a.476.476,0,0,0,.011.064,20.894,20.894,0,0,1-1.89,1.307,17.355,17.355,0,0,1-2.5,1.315.6.6,0,0,0-.348.37l-.287.009a.676.676,0,0,0-.258-.2l-.036-.015h0l-.128-.057c-.1-.045-.2-.091-.3-.139-.212-.1-.422-.2-.632-.311-.487-.248-.97-.506-1.45-.768q-1.234-.675-2.452-1.38.057-.679.115-1.358a7.421,7.421,0,0,0,2.534,1.536,6.485,6.485,0,0,0,2.616.366.5.5,0,0,0,.49-.49.493.493,0,0,0-.49-.489,6.006,6.006,0,0,1-3.936-1.179,6.586,6.586,0,0,1-2.346-3.465m-2.46-10.461c-.044-.1-.09-.2-.137-.3a.4.4,0,0,1-.063-.171,1.618,1.618,0,0,1,.037-.514,10.529,10.529,0,0,1,1.176-2.678,10.52,10.52,0,0,1,2.008-2.68,5.531,5.531,0,0,1,2.451-1.363,9.941,9.941,0,0,1,2.918-.255,7.552,7.552,0,0,1,2.6.528c.026.011.143.062.178.072l.013.01c.113.082.221.175.331.261l.738.584a.829.829,0,0,0,.507.215,3.125,3.125,0,0,1,.76.134,3.242,3.242,0,0,1,1.222.762,10.634,10.634,0,0,1,1.9,2.806c.008.016.039.08.05.1s.028.075.033.089a2.887,2.887,0,0,1,.1.342,3.076,3.076,0,0,1,.072.612,8.628,8.628,0,0,1-.086,1.521,17.022,17.022,0,0,1-.357,1.745c-.035-.107-.071-.213-.107-.32a1.109,1.109,0,0,0-.147-.346,1,1,0,0,0-.3-.212c-.031-.019-.061-.04-.091-.06-.011-.009-.052-.04-.068-.055a2.163,2.163,0,0,1-.184-.187c-.011-.012-.03-.036-.04-.048-.029-.039-.057-.078-.083-.118a3.772,3.772,0,0,1-.269-.5l-.031-.07c-.018-.043-.035-.086-.051-.128-.039-.1-.076-.2-.11-.308-.066-.195-.126-.392-.185-.589-.116-.4-.224-.795-.361-1.185a2.72,2.72,0,0,0-1.424-1.817,1.823,1.823,0,0,0-.65-.112,1.356,1.356,0,0,0-.4.037c-.024,0-.049,0-.072,0l-.765.017a3.436,3.436,0,0,0-1.4-1.689,2.725,2.725,0,0,0-1.964-.243,4.233,4.233,0,0,0-2.181,1.305,12.447,12.447,0,0,0-.749,1.095c-.235.35-.479.7-.748,1.022a4.764,4.764,0,0,1-2.28,1.691.5.5,0,0,0-.342.6.452.452,0,0,0,.264.3,7.285,7.285,0,0,0-.505,2.469l-.25.171c-.122-.367-.248-.734-.379-1.1-.178-.49-.366-.976-.574-1.454m12.417,22.01c.025-.009.008.05,0,0v0m-.08-.011a.186.186,0,0,0-.034.037c-.014-.025.006-.035.034-.037m3.045-3.594a.493.493,0,0,0,.66.18l-1.049,4.807a9.633,9.633,0,0,1-.265,1.156c-.154.44-.322.875-.483,1.312l-2.119,5.757-.466,1.266c-.069-.684-.152-1.366-.232-2.047q-.264-2.226-.571-4.446c-.152-1.092-.273-2.209-.521-3.285a12.173,12.173,0,0,0,.616-1.533q.143.216.287.432c.111.168.218.338.333.5a.939.939,0,0,0,1.424.222c.432-.387.821-.835,1.226-1.248l1.4-1.423c.442-.45-.25-1.143-.693-.693l-2.52,2.563-.022.022c-.028-.04-.066-.083-.083-.109l-.2-.3q-.63-.95-1.261-1.9l-.614-.927a20.2,20.2,0,0,0,4.133-2.537c.343.742.686,1.484,1.02,2.23m1.629.327c.383.165.766.331,1.149.495h0a.494.494,0,0,0-.49.49l.456,5.136a.675.675,0,0,0,.032.143l-.079-.032-1.615-.674a.492.492,0,0,0-.6.342.5.5,0,0,0,.342.6c.818.341,1.661.65,2.462,1.031.066.031.234.092.269.17.053.115-.089.333-.136.431q-.255.53-.509,1.059c-.447.935-.882,1.875-1.323,2.812q-.505,1.076-1.025,2.144a.58.58,0,0,0-.056.292h-3.29q.084-.227.167-.455l2.238-6.078a18.358,18.358,0,0,0,.811-2.4q.6-2.754,1.2-5.509m3.73,1.6c2.259.959,4.519,1.931,6.817,2.8a2.344,2.344,0,0,1,1.234.934,6.466,6.466,0,0,1,.734,1.863c.2.761.369,1.533.594,2.289.154.519.346,1.026.528,1.535q1.314,3.683,2.592,7.377c.8,2.312,1.609,4.624,2.325,6.964q.083.27.162.541a6.219,6.219,0,0,1-.492,5.1,3.38,3.38,0,0,1-.983.917c-.037.023-.076.041-.115.062a4.953,4.953,0,0,1-2.367.493c-.778.022-1.555.045-2.332.065-.307.008-.616,0-.923,0h-1.6l.024-.56.042-.979q.056-1.285.11-2.57.174-4.1.349-8.2c.064-1.5.14-3,.192-4.5a1.219,1.219,0,0,0-.756-1.2c.066-.231.132-.463.2-.694q.619-2.169,1.241-4.336c.2-.7.435-1.4.605-2.111,0-.01.006-.02.008-.031a.49.49,0,0,0-.944-.26l-.494,1.724q-.593,2.072-1.186,4.142-.211.743-.425,1.484h-9q.793-1.648,1.567-3.308.4-.862.815-1.72c.371-.774,1.107-1.841.208-2.532a2.79,2.79,0,0,0-.616-.342.456.456,0,0,0,.247-.419L54.5,62.464a.577.577,0,0,0-.148-.343q1.121.48,2.242.956m5.848,15.6q-.146,3.4-.29,6.809-.177,4.126-.352,8.252-.113,2.621-.224,5.239c0,.111,0,.222-.014.332a1.272,1.272,0,0,1-1.268,1.123H29.431c-.379,0-.759,0-1.138,0a1.288,1.288,0,0,1-1.349-1.2c-.094-1.489-.182-2.978-.273-4.467q-.246-4.035-.493-8.07-.224-3.642-.445-7.285-.06-.975-.119-1.948c-.007-.105-.021-.213-.02-.318,0-.18.092-.242.258-.247,1.007-.03,2.018,0,3.025,0H62.089c.267,0,.43,0,.418.311-.017.49-.041.98-.062,1.47M25.01,94.006l-2.583-.044c-.618-.011-1.262.019-1.877-.054a3.681,3.681,0,0,1-1.384-.451,3.328,3.328,0,0,1-1.088-.979c-.016-.024-.036-.045-.052-.07a5.282,5.282,0,0,1-.77-3.171,10.608,10.608,0,0,1,.591-2.763c.269-.841.552-1.678.838-2.514.754-2.2,1.535-4.395,2.319-6.587q1.04-2.907,2.091-5.81c.372-1.03.685-2.068.991-3.119a3.261,3.261,0,0,1,1.656-2.4c1.141-.479,2.346-.825,3.517-1.221,1.369-.464,2.73-.951,4.058-1.523.534-.23,1.062-.476,1.58-.742a.645.645,0,0,0-.026.125c-.152,1.653-.586,3.265-.738,4.919a.456.456,0,0,0,.255.424c-.126.054-.251.111-.372.174a1.175,1.175,0,0,0-.7,1.018A3.469,3.469,0,0,0,33.83,70.6c.517,1.074,1.02,2.156,1.527,3.235q.492,1.048,1,2.088H28.687q-.583-1.958-1.171-3.914c-.288-.955-.571-1.913-.886-2.859-.2-.6-1.144-.34-.944.26.694,2.085,1.291,4.2,1.918,6.31l.06.2h-.881c-.315,0-.631,0-.947,0a1.2,1.2,0,0,0-1.217,1.094,2.569,2.569,0,0,0,.01.372q.157,2.561.313,5.121.073,1.209.148,2.417L23.2,83.875l-.274-.153a.49.49,0,0,0-.5.846l1.923,1.069.274.152a.519.519,0,0,0,.513-.012q.153,2.513.307,5.025.051.838.1,1.676l.06.979c.011.186.022.37.033.555-.211,0-.423,0-.635-.006M35.112,67.6c.152-1.653.587-3.265.739-4.919a.473.473,0,0,0-.332-.459q.426-.239.836-.5l.831,4.783c.041.233.065.483.113.724a.465.465,0,0,0-.524-.19l-1.436.6-.258.1a.6.6,0,0,0,.031-.141m2.278-.031.008.027q.261.676.523,1.354,1.115,2.885,2.228,5.768l.465,1.2h-3.26a.582.582,0,0,0-.058-.292q-.781-1.617-1.54-3.246-.341-.728-.686-1.455-.234-.492-.47-.982c-.088-.181-.428-.641-.241-.815a1.656,1.656,0,0,1,.478-.232l.717-.3,1.481-.618a.55.55,0,0,0,.355-.413m2.67-1.859a.929.929,0,0,0,1.167.279,2.036,2.036,0,0,0,.569-.609l.7-.92a10.9,10.9,0,0,0,.589,1.552,17.856,17.856,0,0,0-.471,2.822c-.181,1.429-.317,2.864-.44,4.3q-.12,1.393-.219,2.789h-.3l-.241-.624-2.349-6.081a13.08,13.08,0,0,1-.839-2.4l-.711-4.09L40.06,65.71m.713-.594,0,0s-.027.029-.026.034c-.009-.026.006-.035.028-.038m.1.043s-.007-.012-.018-.025c.015.008.024.017.018.025m2.484-1.3q.263-.6.526-1.206l.33-.431,1.053-.035h.021l.719,1.362c-.011.052-.022.1-.035.155-.032.13-.071.259-.114.387s-.095.274-.146.409l-.081.2-.063.155q-.107.249-.219.495H43.862a8.854,8.854,0,0,1-.505-1.495m.16,5.637q.041-.352.086-.707c.013-.106.027-.213.041-.319l.014-.1c.009-.062.017-.124.026-.185a14.471,14.471,0,0,1,.334-1.85h1.274c.173.817.276,1.653.393,2.476.2,1.41.379,2.782.555,4.242.116.957.231,1.915.321,2.874H42.936q.069-.948.146-1.9c.082-1.005.17-2.01.271-3.014q.076-.759.164-1.517m-5.939-8.786a.505.505,0,0,0,.342.6.493.493,0,0,0,.6-.342l.255-1.661a.075.075,0,0,0,.021,0,.522.522,0,0,0,.229-.063c1.183.684,2.378,1.352,3.594,1.975.224.115.45.228.677.336l-.261.6-1.83,2.394c-.132.173-.283.343-.405.525l-.03-.034-1.495-1.757-1.342-1.578a.486.486,0,0,0-.6-.067q-.062-.355-.124-.711l-.028-.162a.33.33,0,0,0-.032-.093.5.5,0,0,0-.687-.2,29.432,29.432,0,0,1-7.882,3.546c-.613.206-1.227.409-1.838.621a12.16,12.16,0,0,0-1.69.651,4.289,4.289,0,0,0-1.887,2.823c-.314,1.066-.626,2.123-1,3.168q-.482,1.336-.964,2.672-1.206,3.346-2.393,6.7c-.67,1.9-1.344,3.8-1.95,5.722-.619,1.963-.924,4.225.076,6.1H11.867c-.947,0-1.9-.018-2.844,0H8.9a.49.49,0,0,0,0,.979h8.722A4.409,4.409,0,0,0,19.957,94.8a11.287,11.287,0,0,0,2.135.14c1.2.02,2.4.053,3.6.061h.016q.083,1.368.167,2.738c.031.5.06,1,.092,1.508a2.279,2.279,0,0,0,2.284,2.174c1.074.007,2.149,0,3.223,0H60.3a2.265,2.265,0,0,0,2.234-1.962c.015-.124.018-.249.024-.374q.039-.937.079-1.875.048-1.1.1-2.209h2.378c.953,0,1.906-.057,2.858-.077a4.947,4.947,0,0,0,3.193-1.086,4.031,4.031,0,0,0,.385-.377H75.7c.948,0,1.9.018,2.843,0h.125a.49.49,0,0,0,0-.979H72.223a5.672,5.672,0,0,0,.539-1.592,8.357,8.357,0,0,0-.235-3.771c-.642-2.217-1.417-4.4-2.168-6.581q-1.326-3.855-2.695-7.695a36.817,36.817,0,0,1-1.109-3.529c-.337-1.37-.669-2.969-1.858-3.872a5.911,5.911,0,0,0-1.5-.692q-.772-.3-1.539-.612Q59.825,63.39,58,62.618q-2.582-1.089-5.152-2.2l-.09-.039a.505.505,0,0,0-.7.236q-.3-.674-.612-1.344l-.63-1.365a.384.384,0,0,0-.27-.219l-.126-1.506c-.008-.091-.015-.183-.023-.275a.519.519,0,0,0-.011-.067c.031-.044.065-.087.1-.132a9.717,9.717,0,0,0,1.336-3.4,3.524,3.524,0,0,0,2.369-2.371,4.33,4.33,0,0,0,.065-3.324,1.563,1.563,0,0,0-.654-.721,1.439,1.439,0,0,0-.607-.148q.159-.53.29-1.065a12.308,12.308,0,0,0,.441-3.292,3.99,3.99,0,0,0-.386-1.721c-.994-1.872-2.294-4.03-4.623-4.179l-.892-.7a4.254,4.254,0,0,0-1.693-.72,10.887,10.887,0,0,0-5.126.052,7.636,7.636,0,0,0-4.191,3.2A17.217,17.217,0,0,0,35.452,39.7a6.117,6.117,0,0,0-.783,2.381,2.935,2.935,0,0,0,.379,1.248c.174.413.331.835.482,1.257q.174.486.337.976a1.677,1.677,0,0,0-1.2.871,3.526,3.526,0,0,0-.293,1.561,5.363,5.363,0,0,0,1.182,3.233,3.591,3.591,0,0,0,1.492,1.1c.077.331.169.66.27.984a8.98,8.98,0,0,0,1.039,2.351c.062.092.13.179.2.268a.323.323,0,0,0-.006.033q-.081.945-.161,1.889a.448.448,0,0,0-.429.349q-.081.534-.163,1.066t-.161,1.054c-.02.129-.039.257-.059.385"/><path class="l" d="M38.316,53.208a12.889,12.889,0,0,1-.416-1.592.485.485,0,0,0-.719-.291,3.707,3.707,0,0,1-1.719-2.5,3.787,3.787,0,0,1-.045-1.533,2.032,2.032,0,0,1,.1-.361l.1-.171a1.03,1.03,0,0,1,.661-.281h.005a.443.443,0,0,0,.51.018l.538-.369a2.119,2.119,0,0,0,.633-.489,2.349,2.349,0,0,0,.09-.9,5.71,5.71,0,0,1,.121-.77,6.289,6.289,0,0,1,.588-1.585c.008-.015.014-.031.021-.047a8.67,8.67,0,0,0,2.86-3,5.228,5.228,0,0,1,.66-.913,3.576,3.576,0,0,1,1.042-.666,2.774,2.774,0,0,1,.362-.137c.065-.02.129-.037.195-.051.031-.007.154-.025.16-.028a2.33,2.33,0,0,1,.364-.008l.092.007h.008a2.012,2.012,0,0,1,.23.052,1.732,1.732,0,0,1,.747.467,3.215,3.215,0,0,1,.666,1.134.506.506,0,0,0,.472.359,11.944,11.944,0,0,0,1.378-.054l.017,0h.012l.109-.006c.062,0,.122,0,.184.005h0l.074.015a1.212,1.212,0,0,0,.15.051c.031.016.061.032.091.05s.044.029.065.045l0,0c.043.04.086.08.127.124l.047.054.008.009.006.009a2.953,2.953,0,0,1,.191.314c.028.055.054.11.081.165l.025.059c.01.024.029.07.032.079.108.275.195.557.279.84a15.351,15.351,0,0,0,.6,1.817,2.964,2.964,0,0,0,1.129,1.4l.6,1.8a.491.491,0,0,0,.274.307.548.548,0,0,0,.45.1,1.774,1.774,0,0,1,.392-.031.65.65,0,0,1,.175.043,1.045,1.045,0,0,1,.27.366,4.348,4.348,0,0,1,.128.485,4.172,4.172,0,0,1,.02.613,4.276,4.276,0,0,1-.911,2.459,1.888,1.888,0,0,1-.893.629.466.466,0,0,0-.186-.1.5.5,0,0,0-.6.342,9.645,9.645,0,0,1-1.3,3.614,7.494,7.494,0,0,1-2.5,2.264.49.49,0,0,0,.495.845,9.646,9.646,0,0,0,1.834-1.39l.078.936c.008.091.015.183.023.275a.476.476,0,0,0,.011.064,20.894,20.894,0,0,1-1.89,1.307,17.355,17.355,0,0,1-2.5,1.315.6.6,0,0,0-.348.37l-.287.009a.676.676,0,0,0-.258-.2l-.036-.015h0l-.128-.057c-.1-.045-.2-.091-.3-.139-.212-.1-.422-.2-.632-.311-.487-.248-.97-.506-1.45-.768q-1.234-.675-2.452-1.38.057-.679.115-1.358a7.421,7.421,0,0,0,2.534,1.536,6.485,6.485,0,0,0,2.616.366.5.5,0,0,0,.49-.49.493.493,0,0,0-.49-.489,6.006,6.006,0,0,1-3.936-1.179,6.586,6.586,0,0,1-2.346-3.465m-2.46-10.461c-.044-.1-.09-.2-.137-.3a.4.4,0,0,1-.063-.171,1.618,1.618,0,0,1,.037-.514,10.529,10.529,0,0,1,1.176-2.678,10.52,10.52,0,0,1,2.008-2.68,5.531,5.531,0,0,1,2.451-1.363,9.941,9.941,0,0,1,2.918-.255,7.552,7.552,0,0,1,2.6.528c.026.011.143.062.178.072l.013.01c.113.082.221.175.331.261l.738.584a.829.829,0,0,0,.507.215,3.125,3.125,0,0,1,.76.134,3.242,3.242,0,0,1,1.222.762,10.634,10.634,0,0,1,1.9,2.806c.008.016.039.08.05.1s.028.075.033.089a2.887,2.887,0,0,1,.1.342,3.076,3.076,0,0,1,.072.612,8.628,8.628,0,0,1-.086,1.521,17.022,17.022,0,0,1-.357,1.745c-.035-.107-.071-.213-.107-.32a1.109,1.109,0,0,0-.147-.346,1,1,0,0,0-.3-.212c-.031-.019-.061-.04-.091-.06-.011-.009-.052-.04-.068-.055a2.163,2.163,0,0,1-.184-.187c-.011-.012-.03-.036-.04-.048-.029-.039-.057-.078-.083-.118a3.772,3.772,0,0,1-.269-.5l-.031-.07c-.018-.043-.035-.086-.051-.128-.039-.1-.076-.2-.11-.308-.066-.195-.126-.392-.185-.589-.116-.4-.224-.795-.361-1.185a2.72,2.72,0,0,0-1.424-1.817,1.823,1.823,0,0,0-.65-.112,1.356,1.356,0,0,0-.4.037c-.024,0-.049,0-.072,0l-.765.017a3.436,3.436,0,0,0-1.4-1.689,2.725,2.725,0,0,0-1.964-.243,4.233,4.233,0,0,0-2.181,1.305,12.447,12.447,0,0,0-.749,1.095c-.235.35-.479.7-.748,1.022a4.764,4.764,0,0,1-2.28,1.691.5.5,0,0,0-.342.6.452.452,0,0,0,.264.3,7.285,7.285,0,0,0-.505,2.469l-.25.171c-.122-.367-.248-.734-.379-1.1-.178-.49-.366-.976-.574-1.454m12.417,22.01c.025-.009.008.05,0,0v0m-.08-.011a.186.186,0,0,0-.034.037c-.014-.025.006-.035.034-.037m3.045-3.594a.493.493,0,0,0,.66.18l-1.049,4.807a9.633,9.633,0,0,1-.265,1.156c-.154.44-.322.875-.483,1.312l-2.119,5.757-.466,1.266c-.069-.684-.152-1.366-.232-2.047q-.264-2.226-.571-4.446c-.152-1.092-.273-2.209-.521-3.285a12.173,12.173,0,0,0,.616-1.533q.143.216.287.432c.111.168.218.338.333.5a.939.939,0,0,0,1.424.222c.432-.387.821-.835,1.226-1.248l1.4-1.423c.442-.45-.25-1.143-.693-.693l-2.52,2.563-.022.022c-.028-.04-.066-.083-.083-.109l-.2-.3q-.63-.95-1.261-1.9l-.614-.927a20.2,20.2,0,0,0,4.133-2.537c.343.742.686,1.484,1.02,2.23m1.629.327c.383.165.766.331,1.149.495h0a.494.494,0,0,0-.49.49l.456,5.136a.675.675,0,0,0,.032.143l-.079-.032-1.615-.674a.492.492,0,0,0-.6.342.5.5,0,0,0,.342.6c.818.341,1.661.65,2.462,1.031.066.031.234.092.269.17.053.115-.089.333-.136.431q-.255.53-.509,1.059c-.447.935-.882,1.875-1.323,2.812q-.505,1.076-1.025,2.144a.58.58,0,0,0-.056.292h-3.29q.084-.227.167-.455l2.238-6.078a18.358,18.358,0,0,0,.811-2.4q.6-2.754,1.2-5.509m3.73,1.6c2.259.959,4.519,1.931,6.817,2.8a2.344,2.344,0,0,1,1.234.934,6.466,6.466,0,0,1,.734,1.863c.2.761.369,1.533.594,2.289.154.519.346,1.026.528,1.535q1.314,3.683,2.592,7.377c.8,2.312,1.609,4.624,2.325,6.964q.083.27.162.541a6.219,6.219,0,0,1-.492,5.1,3.38,3.38,0,0,1-.983.917c-.037.023-.076.041-.115.062a4.953,4.953,0,0,1-2.367.493c-.778.022-1.555.045-2.332.065-.307.008-.616,0-.923,0h-1.6l.024-.56.042-.979q.056-1.285.11-2.57.174-4.1.349-8.2c.064-1.5.14-3,.192-4.5a1.219,1.219,0,0,0-.756-1.2c.066-.231.132-.463.2-.694q.619-2.169,1.241-4.336c.2-.7.435-1.4.605-2.111,0-.01.006-.02.008-.031a.49.49,0,0,0-.944-.26l-.494,1.724q-.593,2.072-1.186,4.142-.211.743-.425,1.484h-9q.793-1.648,1.567-3.308.4-.862.815-1.72c.371-.774,1.107-1.841.208-2.532a2.79,2.79,0,0,0-.616-.342.456.456,0,0,0,.247-.419L54.5,62.464a.577.577,0,0,0-.148-.343q1.121.48,2.242.956m5.848,15.6q-.146,3.4-.29,6.809-.177,4.126-.352,8.252-.113,2.621-.224,5.239c0,.111,0,.222-.014.332a1.272,1.272,0,0,1-1.268,1.123H29.431c-.379,0-.759,0-1.138,0a1.288,1.288,0,0,1-1.349-1.2c-.094-1.489-.182-2.978-.273-4.467q-.246-4.035-.493-8.07-.224-3.642-.445-7.285-.06-.975-.119-1.948c-.007-.105-.021-.213-.02-.318,0-.18.092-.242.258-.247,1.007-.03,2.018,0,3.025,0H62.089c.267,0,.43,0,.418.311-.017.49-.041.98-.062,1.47M25.01,94.006l-2.583-.044c-.618-.011-1.262.019-1.877-.054a3.681,3.681,0,0,1-1.384-.451,3.328,3.328,0,0,1-1.088-.979c-.016-.024-.036-.045-.052-.07a5.282,5.282,0,0,1-.77-3.171,10.608,10.608,0,0,1,.591-2.763c.269-.841.552-1.678.838-2.514.754-2.2,1.535-4.395,2.319-6.587q1.04-2.907,2.091-5.81c.372-1.03.685-2.068.991-3.119a3.261,3.261,0,0,1,1.656-2.4c1.141-.479,2.346-.825,3.517-1.221,1.369-.464,2.73-.951,4.058-1.523.534-.23,1.062-.476,1.58-.742a.645.645,0,0,0-.026.125c-.152,1.653-.586,3.265-.738,4.919a.456.456,0,0,0,.255.424c-.126.054-.251.111-.372.174a1.175,1.175,0,0,0-.7,1.018A3.469,3.469,0,0,0,33.83,70.6c.517,1.074,1.02,2.156,1.527,3.235q.492,1.048,1,2.088H28.687q-.583-1.958-1.171-3.914c-.288-.955-.571-1.913-.886-2.859-.2-.6-1.144-.34-.944.26.694,2.085,1.291,4.2,1.918,6.31l.06.2h-.881c-.315,0-.631,0-.947,0a1.2,1.2,0,0,0-1.217,1.094,2.569,2.569,0,0,0,.01.372q.157,2.561.313,5.121.073,1.209.148,2.417L23.2,83.875l-.274-.153a.49.49,0,0,0-.5.846l1.923,1.069.274.152a.519.519,0,0,0,.513-.012q.153,2.513.307,5.025.051.838.1,1.676l.06.979c.011.186.022.37.033.555-.211,0-.423,0-.635-.006M35.112,67.6c.152-1.653.587-3.265.739-4.919a.473.473,0,0,0-.332-.459q.426-.239.836-.5l.831,4.783c.041.233.065.483.113.724a.465.465,0,0,0-.524-.19l-1.436.6-.258.1a.6.6,0,0,0,.031-.141m2.278-.031.008.027q.261.676.523,1.354,1.115,2.885,2.228,5.768l.465,1.2h-3.26a.582.582,0,0,0-.058-.292q-.781-1.617-1.54-3.246-.341-.728-.686-1.455-.234-.492-.47-.982c-.088-.181-.428-.641-.241-.815a1.656,1.656,0,0,1,.478-.232l.717-.3,1.481-.618a.55.55,0,0,0,.355-.413m2.67-1.859a.929.929,0,0,0,1.167.279,2.036,2.036,0,0,0,.569-.609l.7-.92a10.9,10.9,0,0,0,.589,1.552,17.856,17.856,0,0,0-.471,2.822c-.181,1.429-.317,2.864-.44,4.3q-.12,1.393-.219,2.789h-.3l-.241-.624-2.349-6.081a13.08,13.08,0,0,1-.839-2.4l-.711-4.09L40.06,65.71m.713-.594,0,0s-.027.029-.026.034c-.009-.026.006-.035.028-.038m.1.043s-.007-.012-.018-.025c.015.008.024.017.018.025m2.484-1.3q.263-.6.526-1.206l.33-.431,1.053-.035h.021l.719,1.362c-.011.052-.022.1-.035.155-.032.13-.071.259-.114.387s-.095.274-.146.409l-.081.2-.063.155q-.107.249-.219.495H43.862a8.854,8.854,0,0,1-.505-1.495m.16,5.637q.041-.352.086-.707c.013-.106.027-.213.041-.319l.014-.1c.009-.062.017-.124.026-.185a14.471,14.471,0,0,1,.334-1.85h1.274c.173.817.276,1.653.393,2.476.2,1.41.379,2.782.555,4.242.116.957.231,1.915.321,2.874H42.936q.069-.948.146-1.9c.082-1.005.17-2.01.271-3.014q.076-.759.164-1.517m-5.939-8.786a.505.505,0,0,0,.342.6.493.493,0,0,0,.6-.342l.255-1.661a.075.075,0,0,0,.021,0,.522.522,0,0,0,.229-.063c1.183.684,2.378,1.352,3.594,1.975.224.115.45.228.677.336l-.261.6-1.83,2.394c-.132.173-.283.343-.405.525l-.03-.034-1.495-1.757-1.342-1.578a.486.486,0,0,0-.6-.067q-.062-.355-.124-.711l-.028-.162a.33.33,0,0,0-.032-.093.5.5,0,0,0-.687-.2,29.432,29.432,0,0,1-7.882,3.546c-.613.206-1.227.409-1.838.621a12.16,12.16,0,0,0-1.69.651,4.289,4.289,0,0,0-1.887,2.823c-.314,1.066-.626,2.123-1,3.168q-.482,1.336-.964,2.672-1.206,3.346-2.393,6.7c-.67,1.9-1.344,3.8-1.95,5.722-.619,1.963-.924,4.225.076,6.1H11.867c-.947,0-1.9-.018-2.844,0H8.9a.49.49,0,0,0,0,.979h8.722A4.409,4.409,0,0,0,19.957,94.8a11.287,11.287,0,0,0,2.135.14c1.2.02,2.4.053,3.6.061h.016q.083,1.368.167,2.738c.031.5.06,1,.092,1.508a2.279,2.279,0,0,0,2.284,2.174c1.074.007,2.149,0,3.223,0H60.3a2.265,2.265,0,0,0,2.234-1.962c.015-.124.018-.249.024-.374q.039-.937.079-1.875.048-1.1.1-2.209h2.378c.953,0,1.906-.057,2.858-.077a4.947,4.947,0,0,0,3.193-1.086,4.031,4.031,0,0,0,.385-.377H75.7c.948,0,1.9.018,2.843,0h.125a.49.49,0,0,0,0-.979H72.223a5.672,5.672,0,0,0,.539-1.592,8.357,8.357,0,0,0-.235-3.771c-.642-2.217-1.417-4.4-2.168-6.581q-1.326-3.855-2.695-7.695a36.817,36.817,0,0,1-1.109-3.529c-.337-1.37-.669-2.969-1.858-3.872a5.911,5.911,0,0,0-1.5-.692q-.772-.3-1.539-.612Q59.825,63.39,58,62.618q-2.582-1.089-5.152-2.2l-.09-.039a.505.505,0,0,0-.7.236q-.3-.674-.612-1.344l-.63-1.365a.384.384,0,0,0-.27-.219l-.126-1.506c-.008-.091-.015-.183-.023-.275a.519.519,0,0,0-.011-.067c.031-.044.065-.087.1-.132a9.717,9.717,0,0,0,1.336-3.4,3.524,3.524,0,0,0,2.369-2.371,4.33,4.33,0,0,0,.065-3.324,1.563,1.563,0,0,0-.654-.721,1.439,1.439,0,0,0-.607-.148q.159-.53.29-1.065a12.308,12.308,0,0,0,.441-3.292,3.99,3.99,0,0,0-.386-1.721c-.994-1.872-2.294-4.03-4.623-4.179l-.892-.7a4.254,4.254,0,0,0-1.693-.72,10.887,10.887,0,0,0-5.126.052,7.636,7.636,0,0,0-4.191,3.2A17.217,17.217,0,0,0,35.452,39.7a6.117,6.117,0,0,0-.783,2.381,2.935,2.935,0,0,0,.379,1.248c.174.413.331.835.482,1.257q.174.486.337.976a1.677,1.677,0,0,0-1.2.871,3.526,3.526,0,0,0-.293,1.561,5.363,5.363,0,0,0,1.182,3.233,3.591,3.591,0,0,0,1.492,1.1c.077.331.169.66.27.984a8.98,8.98,0,0,0,1.039,2.351c.062.092.13.179.2.268a.323.323,0,0,0-.006.033q-.081.945-.161,1.889a.448.448,0,0,0-.429.349q-.081.534-.163,1.066t-.161,1.054c-.02.129-.039.257-.059.385"/><path class="j" d="M50.95,69.387l-2.239,6.078q-.084.228-.167.455h3.29a.591.591,0,0,1,.056-.292q.519-1.069,1.026-2.144c.44-.937.876-1.877,1.322-2.812q.254-.529.509-1.059c.047-.1.189-.316.136-.431-.035-.078-.2-.139-.269-.17-.8-.381-1.643-.69-2.461-1.031a.5.5,0,0,1-.343-.6.492.492,0,0,1,.6-.342l1.616.674.078.032a.57.57,0,0,1-.031-.143l-.457-5.136a.5.5,0,0,1,.49-.49h0l-1.149-.5q-.6,2.754-1.2,5.509a18.5,18.5,0,0,1-.81,2.4"/><path class="j" d="M36.87,67.037a.463.463,0,0,1,.524.19c-.047-.241-.072-.491-.112-.725q-.416-2.391-.832-4.782-.41.262-.835.5a.473.473,0,0,1,.331.458c-.152,1.655-.586,3.267-.738,4.92a.634.634,0,0,1-.031.14c.086-.034.172-.068.257-.1Z"/><path class="j" d="M37.13,67.982l-1.48.618-.718.3a1.643,1.643,0,0,0-.478.232c-.187.173.154.633.241.815q.237.491.47.981.346.726.686,1.456.76,1.627,1.54,3.246a.568.568,0,0,1,.058.292h3.26q-.232-.6-.464-1.2L38.016,68.95,37.493,67.6a.2.2,0,0,0-.008-.026.545.545,0,0,1-.355.412"/><path class="k" d="M44.45,51.483l-.039.02s.012,0,.043-.021Z"/><path class="k" d="M44.448,53.309h0l-.035-.017.034.017"/><path class="k" d="M43.942,52.263l.01-.072c.011-.054.025-.107.041-.159.009-.03.021-.059.03-.089s.016-.034.025-.051a1.489,1.489,0,0,1,.078-.133l.034-.046.027-.033c.036-.039.083-.071.118-.112l0,0c.031-.018.06-.039.092-.056l.011-.006a.1.1,0,0,1,.034-.018h.005l.013-.007-.009.005c.026-.009.077-.03.118-.04a.1.1,0,0,0,.022,0c.031,0,.061,0,.091,0h.037c.022,0,.044.008.065.014s.046.012.069.019l.039.017a1.2,1.2,0,0,0,.145.084l0,0c.026.026.054.049.08.076s.033.037.05.054l.01.01.005.01a2.074,2.074,0,0,1,.108.182c.005.01.013.029.019.042s.019.053.028.08c.02.066.034.132.048.2l0,.008v.007c0,.05.006.1.007.15s0,.072,0,.108c0,.011,0,.033-.005.049-.009.05-.018.1-.032.15s-.033.106-.051.158l0,.006c-.019.034-.035.069-.055.1s-.089.122-.077.113c-.029.033-.058.066-.09.1l-.052.047,0,0-.06.038-.05.028-.06.025c-.023.008-.046.014-.069.02l-.031.008-.034,0c-.039,0-.127.017-.164,0l.059.007-.053-.01c-.033-.011-.068-.02-.1-.029l-.012,0,.013.008-.015-.008c-.021-.009-.045-.022-.033-.017l-.015-.008c-.021-.011-.042-.024-.062-.036l-.033-.023c-.016-.013-.038-.031-.039-.033-.019-.017-.036-.034-.053-.051a.783.783,0,0,0-.061-.067.189.189,0,0,0-.016-.023c-.03-.05-.061-.1-.088-.149,0,0-.013-.027-.022-.048s-.021-.053-.021-.054c-.017-.051-.032-.1-.044-.156-.007-.029-.011-.059-.017-.088s0-.034,0-.052a1.57,1.57,0,0,1,0-.194s0-.025,0-.048m.834-.815-.051-.006a.11.11,0,0,1,.051.006m.532,1.411c.02-.056.01-.023,0,0m-.591.495.028,0a.062.062,0,0,1-.028,0m.3.938a1.906,1.906,0,0,0,1.364-1.9,1.95,1.95,0,0,0-1.161-1.829,1.615,1.615,0,0,0-1.893.635A2.147,2.147,0,0,0,43.2,53.4a1.667,1.667,0,0,0,1.811.9"/><path class="k" d="M47.3,44.127a.49.49,0,0,0,0,.979.49.49,0,0,0,0-.979"/><path class="k" d="M41.572,44.127a.49.49,0,0,0,0,.979.49.49,0,0,0,0-.979"/><path class="k" d="M41.845,42.209l-.045-.018a.109.109,0,0,1,.045.018m-1.289.68c-.016.142.009-.034.019-.072s.043-.1.051-.148l.011-.021c.013-.025.027-.05.041-.075s.03-.048.046-.072.05-.061.039-.05l.012-.013c.019-.021.039-.041.059-.061s.041-.04.063-.058.091-.061.03-.026.021-.012.034-.021a.985.985,0,0,1,.089-.052l.06-.032h0l.007,0c.056-.017.111-.035.168-.047l.062-.009h.016a1.263,1.263,0,0,1,.174,0h.012l.066.01a1.7,1.7,0,0,1,.169.047l.049.018.012,0,.03.018c.051.027.1.06.147.09.025.024.052.047.076.071a.49.49,0,0,0,.693-.692,1.92,1.92,0,0,0-1.967-.445,1.95,1.95,0,0,0-1.25,1.636.491.491,0,0,0,.489.49.5.5,0,0,0,.49-.49"/><path class="k" d="M47.143,42.184a.244.244,0,0,1-.034.018.07.07,0,0,0,.039-.02h0Z"/><path class="k" d="M46.913,42.319a.04.04,0,0,0,.015-.007l-.012.005Z"/><path class="k" d="M47.654,42.123l-.049-.008a.092.092,0,0,1,.049.008m-.805.256c.021-.021.042-.041.064-.06h0l.007,0c.051-.045.033-.02.013-.005.036-.019.11-.076.128-.086l.053-.024c-.008,0,0,0,.033-.018l.008,0,0,0a1.444,1.444,0,0,1,.167-.049l.045-.013h.033a1.444,1.444,0,0,1,.174,0h.044l.051.01a1.625,1.625,0,0,1,.169.047h0c.022.011.044.021.066.033a1.111,1.111,0,0,1,.111.06.189.189,0,0,0,.029.028l.063.057c.028.027.109.089.116.126-.037-.05-.045-.06-.024-.031a.318.318,0,0,1,.03.042c.013.018.025.038.037.057s.035.059.051.09l.008.015c-.012-.02.02.047.023.056.01.027.018.054.026.082s.014.055.02.083.019.14,0,0a.5.5,0,0,0,.49.489c.24-.01.521-.217.49-.489a1.948,1.948,0,0,0-1.251-1.636,1.924,1.924,0,0,0-1.967.444.49.49,0,0,0,.693.693"/><path class="k" d="M44.1,46.505a.5.5,0,0,0,.6-.342,4.376,4.376,0,0,0,.043-2.948.49.49,0,0,0-.944.26,3.94,3.94,0,0,1,.164.641l.009.059.005.045c0,.047.009.094.012.142.008.11.011.22.009.331s-.008.221-.019.33c0,.005-.012.09-.012.091-.008.052-.016.1-.027.153a3.918,3.918,0,0,1-.184.636.492.492,0,0,0,.342.6"/><path class="k" d="M44.61,47.5a1.424,1.424,0,0,0-.16,0,1.933,1.933,0,0,0-.2.024.552.552,0,0,0-.068.015.371.371,0,0,0-.166.088.377.377,0,0,0-.126.137.365.365,0,0,0-.058.182.373.373,0,0,0,.008.2l.05.117a.489.489,0,0,0,.175.175l.117.05a.5.5,0,0,0,.261,0h0a1.481,1.481,0,0,1,.249.007.5.5,0,0,0,.565-.348l.018-.13a.5.5,0,0,0-.067-.248l-.077-.1a.5.5,0,0,0-.216-.126c-.1-.017-.206-.03-.309-.037"/><path class="d" d="M45.444,65.35c.074-.164.148-.329.218-.495,0-.008.039-.092.063-.155s.055-.136.081-.2c.052-.135.1-.271.147-.409s.082-.256.114-.387c.013-.051.023-.1.034-.154q-.359-.683-.718-1.363h-.021l-1.054.035-.329.431q-.264.6-.527,1.206a8.74,8.74,0,0,0,.506,1.495Z"/><path class="d" d="M43.178,74.024q-.078.949-.146,1.9h3.626c-.091-.96-.206-1.918-.322-2.874-.176-1.461-.354-2.832-.555-4.242-.117-.823-.22-1.66-.393-2.476H44.114a14.472,14.472,0,0,0-.334,1.85c-.009.061-.017.123-.026.184l-.014.1c-.014.106-.028.213-.041.319q-.045.353-.086.707-.088.758-.164,1.517-.152,1.506-.271,3.014"/><path class="k" d="M63.561,84.943a.49.49,0,1,0,.494.846l2.136-1.514.3-.215A.49.49,0,1,0,66,83.214l-2.136,1.515-.3.214"/><path class="m" d="M60.914,99.788h-.056c-1.317.038-2.642,0-3.96,0H28.353a.49.49,0,0,1,0-.98h.056c1.317-.038,2.642,0,3.959,0H60.914a.49.49,0,0,1,0,.98M43.522,87.715a1.626,1.626,0,0,1,1.77-.472,1.628,1.628,0,1,1-1.77.472M62.186,76.9H28.972c-1.006,0-2.017-.03-3.023,0-.167,0-.257.067-.258.247,0,.1.013.213.018.318q.062.973.12,1.948.222,3.642.445,7.286.246,4.034.493,8.069c.091,1.489.178,2.978.273,4.467a1.289,1.289,0,0,0,1.349,1.2c.38,0,.759,0,1.139,0H60.393a1.272,1.272,0,0,0,1.268-1.122c.009-.111.009-.222.014-.333q.113-2.619.223-5.239.176-4.125.352-8.252l.291-6.809c.021-.49.044-.979.063-1.469.01-.307-.152-.312-.418-.312"/><path class="j" d="M44.238,88.379l-.007.012a.31.31,0,0,0,.03-.028c.007-.016,0-.024-.023.016"/><path class="j" d="M44.489,88.182l.006,0-.006,0"/><path class="j" d="M44.488,89.375l.026.008a.075.075,0,0,0-.018-.014c-.025-.011-.052-.008-.008.006"/><path class="j" d="M44.523,89.389l0,0h0l.007.006"/><path class="j" d="M44.856,89.42l.009,0a.4.4,0,0,0-.047,0,.077.077,0,0,0,.038,0"/><path class="j" d="M44.879,89.42l-.01,0h-.005l.015,0"/><path class="j" d="M45.4,88.652l0,.012,0,0a.042.042,0,0,1,0-.017"/><path class="j" d="M44.107,88.705v.009a1.138,1.138,0,0,0,0,.143v.008h0c0,.02.008.04.013.06a1.183,1.183,0,0,1,.045.131l0,0c.009.018.019.035.029.052s.021.033.031.049a.049.049,0,0,1,.019.014c.033.031.085.1.1.111h0l.042.029c.02.012.073.032.105.051a.057.057,0,0,1,.022.015l.057.019.083.019a1.338,1.338,0,0,0,.142,0l.018,0c-.009,0,.021-.016.051-.007.045-.01.089-.024.133-.037l.005,0,0,0c.017-.01.035-.018.053-.028s.074-.058.11-.074l.006-.006.043-.042c.014-.015.028-.033.044-.048.026-.042.051-.083.075-.126.007-.022.023-.054.027-.067a1.155,1.155,0,0,1,.031-.139l0-.068c0-.015-.006-.044-.009-.071a.079.079,0,0,1,0-.044c-.013-.048-.025-.1-.04-.143-.015-.026-.028-.053-.043-.078s-.029-.045-.044-.067l0,0-.1-.105-.005,0-.013-.009-.05-.032c-.026-.015-.057-.028-.083-.044-.055-.017-.109-.032-.165-.046-.024,0-.048,0-.073,0s-.052,0-.078,0l-.056.008-.059.015-.06.02a1.124,1.124,0,0,1-.149.081c-.014.009-.094.05-.022.015s0,0-.019.019-.04.047-.065.075a.064.064,0,0,1-.032.031c-.011.016-.021.031-.031.048s-.028.052-.043.078h0a1.307,1.307,0,0,0-.041.139.578.578,0,0,1-.012.06l0-.015c.005-.045.028-.086,0,0"/><path class="j" d="M45.4,88.69l-.006-.021a.253.253,0,0,0,0,.038c.006.015.013.016,0-.017"/><path class="j" d="M44.224,89.161l.007.005,0,0,0,0"/><path class="j" d="M44.246,89.19c.026.04.019.01,0-.012l-.016-.011Z"/><path class="j" d="M45.4,88.875c0,.028,0,.051,0,0"/><path class="j" d="M44.224,88.4l0,0v0l-.006,0"/><path class="k" d="M44.113,88.66c.011-.048.027-.093.041-.139h0c.015-.025.028-.053.043-.078s.021-.032.031-.048l0,0,.006-.005.008-.012c.025-.04.03-.032.022-.016.026-.028.056-.066.066-.075s.085-.052.018-.019.009-.006.022-.015a1.065,1.065,0,0,0,.149-.081l.06-.02.06-.015.056-.007c.026,0,.052,0,.078,0l.073,0c.055.014.11.029.165.046.025.017.056.029.082.044l.05.032.013.009.006,0,.1.105,0,0c.015.022.03.044.043.067s.029.052.043.078h0c.015.047.028.094.04.143l0-.012a.042.042,0,0,0,0,.017l.006.021c.008.033,0,.032,0,.017,0,.027.008.057.008.071s0,.045,0,.068a1.017,1.017,0,0,0-.03.139c0,.013-.021.045-.028.067-.024.043-.048.085-.075.126-.015.015-.029.034-.044.048s-.028.028-.042.042l-.007.006c-.036.016-.08.057-.11.074s-.035.019-.053.028l0,0h0c-.045.013-.089.027-.134.037l.01,0-.014,0-.009,0a.12.12,0,0,1-.038,0l-.017,0a1.364,1.364,0,0,1-.143,0l-.083-.019-.057-.019,0,0-.007-.006-.026-.009c-.044-.014-.017-.016.008,0-.033-.019-.086-.039-.106-.051l-.042-.029h0c-.016-.016-.068-.08-.1-.111.018.022.025.052,0,.012l-.015-.024-.007,0,.005,0c-.011-.016-.022-.032-.032-.049s-.02-.034-.029-.052l0,0a.877.877,0,0,0-.045-.131c0-.02-.008-.04-.013-.06h0v-.008a1.363,1.363,0,0,1,0-.143v-.009l0,.015a.577.577,0,0,0,.011-.06m.376-.479h.006c-.029.01-.061.019-.006,0m.909.694c0,.05,0,.027,0,0m-.312,1.5a1.627,1.627,0,0,0,.205-3.129,1.623,1.623,0,0,0-1.769.473,1.626,1.626,0,0,0,1.564,2.656"/><path class="k" d="M44.515,89.383h0a.054.054,0,0,0-.021-.015.162.162,0,0,1,.018.014"/><path class="k" d="M44.818,89.424l.046-.006h.005c-.03-.009-.06,0-.051.007"/><path class="k" d="M44.26,88.363a.224.224,0,0,1-.03.028l0,0a.061.061,0,0,0,.032-.031"/><path class="k" d="M45.393,88.669v0a.076.076,0,0,0,0,.043.166.166,0,0,1,0-.038"/><path class="k" d="M44.231,89.165a.051.051,0,0,1,.016.012.043.043,0,0,0-.018-.015Z"/><path class="k" d="M44.106,88.705c.028-.086.005-.045,0,0"/></g></g></svg>