<svg xmlns="http://www.w3.org/2000/svg" width="422.199" height="73.495"><defs><style>.a{fill:#fff}</style></defs><path class="a" d="M0 58.402V13.918h7.847v44.484ZM71.735 58.402h-7.668l-4.54-23.981-9.012 24.6h-2.853l-8.91-24.6-4.814 23.981h-7.581l8.92-44.484h4.191l9.624 30.041 9.454-30.041h4.1ZM139.501 40.841v-7.075h16.053v7.075ZM240.06 41.812q0-8.067 4.636-13.126a15.817 15.817 0 0 1 12.244-5.06c5.331 0 9.473 1.61 12.421 4.868s4.432 7.671 4.432 13.315-1.505 10.069-4.512 13.386-7.109 4.964-12.341 4.964q-8 0-12.449-5.013t-4.431-13.334Zm8.478 0q0 11.6 8.4 11.6a7.254 7.254 0 0 0 6.11-3.013q2.256-3.017 2.256-8.589 0-11.436-8.366-11.436a7.281 7.281 0 0 0-6.135 3.01q-2.276 3.018-2.268 8.425ZM320.733 58.145h-2.76l-8.9-19.969-8.932 19.969h-2.761l-12.31-33.163h8.036l6.466 19.434 7.977-19.434h2.782l8.242 19.61 7-19.61h7.492ZM221.383 49.445V13.426h-7.581v39.341c0 4.769 1.722 7.164 5.152 7.164a6.239 6.239 0 0 0 6-3.322q-3.577-1.15-3.571-7.164ZM186.409 24.79a6.8 6.8 0 0 1 1.505-4.506 4.635 4.635 0 0 1 3.656-1.854 12.813 12.813 0 0 1 3.607.742v-6.363a19.014 19.014 0 0 0-4.126-.529 10.9 10.9 0 0 0-8.506 3.656 14.721 14.721 0 0 0-3.53 9.544v8.345h-4.728v7h4.729l-.043 17.58h7.578l.04-17.58h6.6v-7h-6.694c-.057-.278-.088-8.774-.088-9.035ZM107.919 40.866h6.441v9.547a10.892 10.892 0 0 1-7.3 2.42q-6.738 0-10.651-4.438t-3.9-11.844q0-7.789 3.984-12.428t10.868-4.634a14.141 14.141 0 0 1 5.254 1.27 17.765 17.765 0 0 1 4.345 2.42v-8.94a20.42 20.42 0 0 0-9.4-2.136q-10.817 0-17.237 6.725t-6.41 17.5q0 10.759 5.872 17.308t15.9 6.562a33.38 33.38 0 0 0 9.272-1.351 21.538 21.538 0 0 0 7.619-3.789V33.766h-14.657ZM406.92 7.004a34.533 34.533 0 0 0-26.812-6.5 35.543 35.543 0 0 0-17.19 7.795 35.792 35.792 0 0 0-10.975 15.3 36.387 36.387 0 0 0-1.793 18.977 36.189 36.189 0 0 0 14.412 23.835q11.995 9.065 27.476 6.537a34.55 34.55 0 0 0 23.424-14.566 35.285 35.285 0 0 0 6.181-27.244A35.853 35.853 0 0 0 406.92 7.004Zm4.988 49.278a29.892 29.892 0 0 1-20.451 12.959 31.529 31.529 0 0 1-21.415-3.916q-12.86-7.384-15.453-23.261-2.324-14.242 5.18-24.967a31.549 31.549 0 0 1 44.531-7.031 32.428 32.428 0 0 1 12.922 21.635q2.243 13.74-5.314 24.581Z"/><path class="a" d="M401.888 50.187a15.948 15.948 0 1 0-16.35-23.767l-2.726-.927a11.077 11.077 0 1 0-1.79 3.656l2.809 1.49a15.951 15.951 0 0 0 10.969 19.11c-5 6.914-11.127 8.54-16.381 8.283a11.4 11.4 0 1 0-17.339-7.637c.025.164.062.309.093.479a13.342 13.342 0 0 0 8.944 10.768 29.185 29.185 0 0 0 3.174.729 26.981 26.981 0 0 0 11.63-1.008l.059.022 11.2 3.755a1.916 1.916 0 0 0 1.106-3.659l-7.393-2.473a22.61 22.61 0 0 0 3.842-3.106l11.126 3.734a1.916 1.916 0 0 0 1.107-3.659l-9.581-3.224a27.584 27.584 0 0 0 1.545-2.4 15.878 15.878 0 0 0 3.956-.166Z"/></svg>